<svg width="1340" height="983" viewBox="0 0 1340 983" fill="none" xmlns="http://www.w3.org/2000/svg">
<g clip-path="url(#clip0_7_1820)">
<rect width="1340" height="983" rx="40" fill="url(#paint0_linear_7_1820)"/>
<g clip-path="url(#clip1_7_1820)">
<rect width="1343" height="1242" transform="matrix(-1 0 0 1 1343 -10)" fill="white"/>
<rect width="1443" height="375" transform="matrix(-1 0 0 1 1343 -10)" fill="url(#paint1_linear_7_1820)"/>
<g opacity="0.2" filter="url(#filter0_f_7_1820)">
<circle cx="273.5" cy="273.5" r="273.5" transform="matrix(-1 0 0 1 1218 762)" fill="#E64438"/>
</g>
<g opacity="0.4" filter="url(#filter1_f_7_1820)">
<circle cx="148.5" cy="148.5" r="148.5" transform="matrix(-1 0 0 1 847 -83)" fill="#E64438"/>
</g>
<g opacity="0.1" filter="url(#filter2_f_7_1820)">
<circle cx="394.5" cy="394.5" r="394.5" transform="matrix(-1 0 0 1 602 276)" fill="#AF1315"/>
</g>
<g opacity="0.3" filter="url(#filter3_f_7_1820)">
<circle cx="190" cy="190" r="190" transform="matrix(-1 0 0 1 1344 311)" fill="#AF1315"/>
</g>
<g filter="url(#filter4_i_7_1820)">
<g filter="url(#filter5_i_7_1820)">
<path d="M269.521 178.134C283.147 171.659 293.962 177.592 292.256 180.795C280.976 176.213 278.04 185.437 264.728 185.792C252.808 185.457 248.58 180.076 248.881 175.316C249.132 171.6 254.678 185.181 269.521 178.134Z" fill="white" fill-opacity="0.4"/>
</g>
<g filter="url(#filter6_i_7_1820)">
<path d="M269.521 313.581C283.147 307.106 293.962 313.039 292.256 316.242C280.976 311.659 278.04 320.884 264.728 321.238C252.808 320.903 248.58 315.522 248.881 310.762C249.132 307.047 254.678 320.627 269.521 313.581Z" fill="white" fill-opacity="0.4"/>
</g>
<g filter="url(#filter7_i_7_1820)">
<path d="M42.8177 178.134C56.4437 171.659 67.2593 177.592 65.5529 180.795C54.2731 176.213 51.3371 185.437 38.0247 185.792C26.1051 185.457 21.8767 180.076 22.1779 175.316C22.4288 171.6 27.9746 185.181 42.8177 178.134Z" fill="white" fill-opacity="0.4"/>
</g>
<g filter="url(#filter8_i_7_1820)">
<path d="M42.8177 313.581C56.4437 307.106 67.2593 313.039 65.5529 316.242C54.2731 311.659 51.3371 320.884 38.0247 321.238C26.1051 320.903 21.8767 315.522 22.1779 310.762C22.4288 307.047 27.9746 320.627 42.8177 313.581Z" fill="white" fill-opacity="0.4"/>
</g>
<g filter="url(#filter9_i_7_1820)">
<path d="M193.954 178.134C207.58 171.659 218.396 177.592 216.69 180.795C205.41 176.213 202.474 185.437 189.161 185.792C177.242 185.457 173.013 180.076 173.314 175.316C173.565 171.6 179.111 185.181 193.954 178.134Z" fill="white" fill-opacity="0.4"/>
</g>
<g filter="url(#filter10_i_7_1820)">
<path d="M193.954 313.581C207.58 307.106 218.396 313.039 216.69 316.242C205.41 311.659 202.474 320.884 189.161 321.238C177.242 320.903 173.013 315.522 173.314 310.762C173.565 307.047 179.111 320.627 193.954 313.581Z" fill="white" fill-opacity="0.4"/>
</g>
<g filter="url(#filter11_i_7_1820)">
<path d="M118.384 178.134C132.01 171.659 142.826 177.592 141.119 180.795C129.84 176.213 126.904 185.437 113.591 185.792C101.671 185.457 97.4431 180.076 97.7443 175.316C97.9952 171.6 103.541 185.181 118.384 178.134Z" fill="white" fill-opacity="0.4"/>
</g>
<g filter="url(#filter12_i_7_1820)">
<path d="M118.384 313.581C132.01 307.106 142.826 313.039 141.119 316.242C129.84 311.659 126.904 320.884 113.591 321.238C101.671 320.903 97.4431 315.522 97.7443 310.762C97.9952 307.047 103.541 320.627 118.384 313.581Z" fill="white" fill-opacity="0.4"/>
</g>
<g filter="url(#filter13_i_7_1820)">
<path d="M269.521 211.996C283.147 205.521 293.962 211.454 292.256 214.657C280.976 210.074 278.04 219.299 264.728 219.653C252.808 219.318 248.58 213.937 248.881 209.177C249.132 205.462 254.678 219.042 269.521 211.996Z" fill="white" fill-opacity="0.4"/>
</g>
<g filter="url(#filter14_i_7_1820)">
<path d="M269.521 347.442C283.147 340.967 293.962 346.9 292.256 350.103C280.976 345.52 278.04 354.745 264.728 355.1C252.808 354.765 248.58 349.384 248.881 344.623C249.132 340.908 254.678 354.489 269.521 347.442Z" fill="white" fill-opacity="0.4"/>
</g>
<g filter="url(#filter15_i_7_1820)">
<path d="M42.8177 211.996C56.4437 205.521 67.2593 211.454 65.5529 214.657C54.2731 210.074 51.3371 219.299 38.0247 219.653C26.1051 219.318 21.8767 213.937 22.1779 209.177C22.4288 205.462 27.9746 219.042 42.8177 211.996Z" fill="white" fill-opacity="0.4"/>
</g>
<g filter="url(#filter16_i_7_1820)">
<path d="M42.8177 347.442C56.4437 340.967 67.2593 346.9 65.5529 350.103C54.2731 345.52 51.3371 354.745 38.0247 355.1C26.1051 354.765 21.8767 349.384 22.1779 344.623C22.4288 340.908 27.9746 354.489 42.8177 347.442Z" fill="white" fill-opacity="0.4"/>
</g>
<g filter="url(#filter17_i_7_1820)">
<path d="M193.954 211.996C207.58 205.521 218.396 211.454 216.69 214.657C205.41 210.074 202.474 219.299 189.161 219.653C177.242 219.318 173.013 213.937 173.314 209.177C173.565 205.462 179.111 219.042 193.954 211.996Z" fill="white" fill-opacity="0.4"/>
</g>
<g filter="url(#filter18_i_7_1820)">
<path d="M193.954 347.442C207.58 340.967 218.396 346.9 216.69 350.103C205.41 345.52 202.474 354.745 189.161 355.1C177.242 354.765 173.013 349.384 173.314 344.623C173.565 340.908 179.111 354.489 193.954 347.442Z" fill="white" fill-opacity="0.4"/>
</g>
<g filter="url(#filter19_i_7_1820)">
<path d="M118.384 211.996C132.01 205.521 142.826 211.454 141.119 214.657C129.84 210.074 126.904 219.299 113.591 219.653C101.671 219.318 97.4431 213.937 97.7443 209.177C97.9952 205.462 103.541 219.042 118.384 211.996Z" fill="white" fill-opacity="0.4"/>
</g>
<g filter="url(#filter20_i_7_1820)">
<path d="M118.384 347.442C132.01 340.967 142.826 346.9 141.119 350.103C129.84 345.52 126.904 354.745 113.591 355.1C101.671 354.765 97.4431 349.384 97.7443 344.623C97.9952 340.908 103.541 354.489 118.384 347.442Z" fill="white" fill-opacity="0.4"/>
</g>
<g filter="url(#filter21_i_7_1820)">
<path d="M269.521 245.858C283.147 239.383 293.962 245.316 292.256 248.519C280.976 243.936 278.04 253.161 264.728 253.515C252.808 253.18 248.58 247.799 248.881 243.039C249.132 239.323 254.678 252.904 269.521 245.858Z" fill="white" fill-opacity="0.4"/>
</g>
<g filter="url(#filter22_i_7_1820)">
<path d="M42.8177 245.858C56.4437 239.383 67.2593 245.316 65.5529 248.519C54.2731 243.936 51.3371 253.161 38.0247 253.515C26.1051 253.18 21.8767 247.799 22.1779 243.039C22.4288 239.323 27.9746 252.904 42.8177 245.858Z" fill="white" fill-opacity="0.4"/>
</g>
<g filter="url(#filter23_i_7_1820)">
<path d="M193.954 245.858C207.58 239.383 218.396 245.316 216.69 248.519C205.41 243.936 202.474 253.161 189.161 253.515C177.242 253.18 173.013 247.799 173.314 243.039C173.565 239.323 179.111 252.904 193.954 245.858Z" fill="white" fill-opacity="0.4"/>
</g>
<g filter="url(#filter24_i_7_1820)">
<path d="M118.384 245.858C132.01 239.383 142.826 245.316 141.119 248.519C129.84 243.936 126.904 253.161 113.591 253.515C101.671 253.18 97.4431 247.799 97.7443 243.039C97.9952 239.323 103.541 252.904 118.384 245.858Z" fill="white" fill-opacity="0.4"/>
</g>
<g filter="url(#filter25_i_7_1820)">
<path d="M269.521 279.719C283.147 273.244 293.962 279.177 292.256 282.38C280.976 277.797 278.04 287.022 264.728 287.377C252.808 287.042 248.58 281.66 248.881 276.9C249.132 273.185 254.678 286.766 269.521 279.719Z" fill="white" fill-opacity="0.4"/>
</g>
<g filter="url(#filter26_i_7_1820)">
<path d="M345.087 178.134C358.713 171.659 369.529 177.592 367.822 180.795C356.543 176.213 353.607 185.437 340.294 185.792C328.375 185.457 324.146 180.076 324.447 175.316C324.698 171.6 330.244 185.181 345.087 178.134Z" fill="white" fill-opacity="0.4"/>
</g>
<g filter="url(#filter27_i_7_1820)">
<path d="M345.087 313.581C358.713 307.106 369.529 313.039 367.822 316.242C356.543 311.659 353.607 320.884 340.294 321.238C328.375 320.903 324.146 315.522 324.447 310.762C324.698 307.047 330.244 320.627 345.087 313.581Z" fill="white" fill-opacity="0.4"/>
</g>
<g filter="url(#filter28_i_7_1820)">
<path d="M345.087 211.996C358.713 205.521 369.529 211.454 367.822 214.657C356.543 210.074 353.607 219.299 340.294 219.654C328.375 219.319 324.146 213.938 324.447 209.177C324.698 205.462 330.244 219.043 345.087 211.996Z" fill="white" fill-opacity="0.4"/>
</g>
<g filter="url(#filter29_i_7_1820)">
<path d="M345.087 347.442C358.713 340.967 369.529 346.9 367.822 350.103C356.543 345.521 353.607 354.745 340.294 355.1C328.375 354.765 324.146 349.384 324.447 344.624C324.698 340.908 330.244 354.489 345.087 347.442Z" fill="white" fill-opacity="0.4"/>
</g>
<g filter="url(#filter30_i_7_1820)">
<path d="M345.087 245.858C358.713 239.383 369.529 245.316 367.822 248.519C356.543 243.936 353.607 253.161 340.294 253.515C328.375 253.18 324.146 247.799 324.447 243.039C324.698 239.323 330.244 252.904 345.087 245.858Z" fill="white" fill-opacity="0.4"/>
</g>
<g filter="url(#filter31_i_7_1820)">
<path d="M345.087 279.719C358.713 273.244 369.529 279.177 367.822 282.38C356.543 277.797 353.607 287.022 340.294 287.377C328.375 287.042 324.146 281.661 324.447 276.901C324.698 273.185 330.244 286.766 345.087 279.719Z" fill="white" fill-opacity="0.4"/>
</g>
<g filter="url(#filter32_i_7_1820)">
<path d="M42.8177 279.719C56.4437 273.244 67.2593 279.177 65.5529 282.38C54.2731 277.798 51.3371 287.022 38.0247 287.377C26.1051 287.042 21.8767 281.661 22.1779 276.901C22.4288 273.185 27.9746 286.766 42.8177 279.719Z" fill="white" fill-opacity="0.4"/>
</g>
<g filter="url(#filter33_i_7_1820)">
<path d="M193.954 279.719C207.58 273.244 218.396 279.177 216.69 282.38C205.41 277.798 202.474 287.022 189.161 287.377C177.242 287.042 173.013 281.661 173.314 276.901C173.565 273.185 179.111 286.766 193.954 279.719Z" fill="white" fill-opacity="0.4"/>
</g>
<g filter="url(#filter34_i_7_1820)">
<path d="M118.384 279.719C132.01 273.244 142.826 279.177 141.119 282.38C129.84 277.798 126.904 287.022 113.591 287.377C101.671 287.042 97.4431 281.661 97.7443 276.901C97.9952 273.185 103.541 286.766 118.384 279.719Z" fill="white" fill-opacity="0.4"/>
</g>
</g>
<g opacity="0.5" filter="url(#filter35_i_7_1820)">
<path d="M1080.41 37C1199.84 37 1297 134.348 1297 254.007C1297 373.652 1199.84 471 1080.41 471C960.533 471 863 373.652 863 254.007C863 134.348 960.533 37 1080.41 37ZM1080.41 400.602C1157.95 400.602 1223.46 333.472 1223.46 254.007C1223.46 174.542 1157.95 107.411 1080.41 107.411C1001.53 107.411 937.37 173.171 937.37 254.007C937.37 334.829 1001.53 400.602 1080.41 400.602Z" fill="white"/>
</g>
</g>
</g>
<defs>
<filter id="filter0_f_7_1820" x="271" y="362" width="1347" height="1347" filterUnits="userSpaceOnUse" color-interpolation-filters="sRGB">
<feFlood flood-opacity="0" result="BackgroundImageFix"/>
<feBlend mode="normal" in="SourceGraphic" in2="BackgroundImageFix" result="shape"/>
<feGaussianBlur stdDeviation="200" result="effect1_foregroundBlur_7_1820"/>
</filter>
<filter id="filter1_f_7_1820" x="150" y="-483" width="1097" height="1097" filterUnits="userSpaceOnUse" color-interpolation-filters="sRGB">
<feFlood flood-opacity="0" result="BackgroundImageFix"/>
<feBlend mode="normal" in="SourceGraphic" in2="BackgroundImageFix" result="shape"/>
<feGaussianBlur stdDeviation="200" result="effect1_foregroundBlur_7_1820"/>
</filter>
<filter id="filter2_f_7_1820" x="-587" y="-124" width="1589" height="1589" filterUnits="userSpaceOnUse" color-interpolation-filters="sRGB">
<feFlood flood-opacity="0" result="BackgroundImageFix"/>
<feBlend mode="normal" in="SourceGraphic" in2="BackgroundImageFix" result="shape"/>
<feGaussianBlur stdDeviation="200" result="effect1_foregroundBlur_7_1820"/>
</filter>
<filter id="filter3_f_7_1820" x="564" y="-89" width="1180" height="1180" filterUnits="userSpaceOnUse" color-interpolation-filters="sRGB">
<feFlood flood-opacity="0" result="BackgroundImageFix"/>
<feBlend mode="normal" in="SourceGraphic" in2="BackgroundImageFix" result="shape"/>
<feGaussianBlur stdDeviation="200" result="effect1_foregroundBlur_7_1820"/>
</filter>
<filter id="filter4_i_7_1820" x="-53.4033" y="174.659" width="421.403" height="184.441" filterUnits="userSpaceOnUse" color-interpolation-filters="sRGB">
<feFlood flood-opacity="0" result="BackgroundImageFix"/>
<feBlend mode="normal" in="SourceGraphic" in2="BackgroundImageFix" result="shape"/>
<feColorMatrix in="SourceAlpha" type="matrix" values="0 0 0 0 0 0 0 0 0 0 0 0 0 0 0 0 0 0 127 0" result="hardAlpha"/>
<feOffset dy="4"/>
<feGaussianBlur stdDeviation="2"/>
<feComposite in2="hardAlpha" operator="arithmetic" k2="-1" k3="1"/>
<feColorMatrix type="matrix" values="0 0 0 0 0 0 0 0 0 0 0 0 0 0 0 0 0 0 0.01 0"/>
<feBlend mode="normal" in2="shape" result="effect1_innerShadow_7_1820"/>
</filter>
<filter id="filter5_i_7_1820" x="248.866" y="174.659" width="43.5674" height="11.1331" filterUnits="userSpaceOnUse" color-interpolation-filters="sRGB">
<feFlood flood-opacity="0" result="BackgroundImageFix"/>
<feBlend mode="normal" in="SourceGraphic" in2="BackgroundImageFix" result="shape"/>
<feColorMatrix in="SourceAlpha" type="matrix" values="0 0 0 0 0 0 0 0 0 0 0 0 0 0 0 0 0 0 127 0" result="hardAlpha"/>
<feOffset/>
<feGaussianBlur stdDeviation="4"/>
<feComposite in2="hardAlpha" operator="arithmetic" k2="-1" k3="1"/>
<feColorMatrix type="matrix" values="0 0 0 0 1 0 0 0 0 0.807843 0 0 0 0 0.423529 0 0 0 0.05 0"/>
<feBlend mode="normal" in2="shape" result="effect1_innerShadow_7_1820"/>
</filter>
<filter id="filter6_i_7_1820" x="248.866" y="310.105" width="43.5674" height="11.1331" filterUnits="userSpaceOnUse" color-interpolation-filters="sRGB">
<feFlood flood-opacity="0" result="BackgroundImageFix"/>
<feBlend mode="normal" in="SourceGraphic" in2="BackgroundImageFix" result="shape"/>
<feColorMatrix in="SourceAlpha" type="matrix" values="0 0 0 0 0 0 0 0 0 0 0 0 0 0 0 0 0 0 127 0" result="hardAlpha"/>
<feOffset/>
<feGaussianBlur stdDeviation="4"/>
<feComposite in2="hardAlpha" operator="arithmetic" k2="-1" k3="1"/>
<feColorMatrix type="matrix" values="0 0 0 0 1 0 0 0 0 0.807843 0 0 0 0 0.423529 0 0 0 0.05 0"/>
<feBlend mode="normal" in2="shape" result="effect1_innerShadow_7_1820"/>
</filter>
<filter id="filter7_i_7_1820" x="22.1631" y="174.659" width="43.5674" height="11.1331" filterUnits="userSpaceOnUse" color-interpolation-filters="sRGB">
<feFlood flood-opacity="0" result="BackgroundImageFix"/>
<feBlend mode="normal" in="SourceGraphic" in2="BackgroundImageFix" result="shape"/>
<feColorMatrix in="SourceAlpha" type="matrix" values="0 0 0 0 0 0 0 0 0 0 0 0 0 0 0 0 0 0 127 0" result="hardAlpha"/>
<feOffset/>
<feGaussianBlur stdDeviation="4"/>
<feComposite in2="hardAlpha" operator="arithmetic" k2="-1" k3="1"/>
<feColorMatrix type="matrix" values="0 0 0 0 1 0 0 0 0 0.807843 0 0 0 0 0.423529 0 0 0 0.05 0"/>
<feBlend mode="normal" in2="shape" result="effect1_innerShadow_7_1820"/>
</filter>
<filter id="filter8_i_7_1820" x="22.1631" y="310.105" width="43.5674" height="11.1331" filterUnits="userSpaceOnUse" color-interpolation-filters="sRGB">
<feFlood flood-opacity="0" result="BackgroundImageFix"/>
<feBlend mode="normal" in="SourceGraphic" in2="BackgroundImageFix" result="shape"/>
<feColorMatrix in="SourceAlpha" type="matrix" values="0 0 0 0 0 0 0 0 0 0 0 0 0 0 0 0 0 0 127 0" result="hardAlpha"/>
<feOffset/>
<feGaussianBlur stdDeviation="4"/>
<feComposite in2="hardAlpha" operator="arithmetic" k2="-1" k3="1"/>
<feColorMatrix type="matrix" values="0 0 0 0 1 0 0 0 0 0.807843 0 0 0 0 0.423529 0 0 0 0.05 0"/>
<feBlend mode="normal" in2="shape" result="effect1_innerShadow_7_1820"/>
</filter>
<filter id="filter9_i_7_1820" x="173.3" y="174.659" width="43.5674" height="11.1331" filterUnits="userSpaceOnUse" color-interpolation-filters="sRGB">
<feFlood flood-opacity="0" result="BackgroundImageFix"/>
<feBlend mode="normal" in="SourceGraphic" in2="BackgroundImageFix" result="shape"/>
<feColorMatrix in="SourceAlpha" type="matrix" values="0 0 0 0 0 0 0 0 0 0 0 0 0 0 0 0 0 0 127 0" result="hardAlpha"/>
<feOffset/>
<feGaussianBlur stdDeviation="4"/>
<feComposite in2="hardAlpha" operator="arithmetic" k2="-1" k3="1"/>
<feColorMatrix type="matrix" values="0 0 0 0 1 0 0 0 0 0.807843 0 0 0 0 0.423529 0 0 0 0.05 0"/>
<feBlend mode="normal" in2="shape" result="effect1_innerShadow_7_1820"/>
</filter>
<filter id="filter10_i_7_1820" x="173.3" y="310.105" width="43.5674" height="11.1331" filterUnits="userSpaceOnUse" color-interpolation-filters="sRGB">
<feFlood flood-opacity="0" result="BackgroundImageFix"/>
<feBlend mode="normal" in="SourceGraphic" in2="BackgroundImageFix" result="shape"/>
<feColorMatrix in="SourceAlpha" type="matrix" values="0 0 0 0 0 0 0 0 0 0 0 0 0 0 0 0 0 0 127 0" result="hardAlpha"/>
<feOffset/>
<feGaussianBlur stdDeviation="4"/>
<feComposite in2="hardAlpha" operator="arithmetic" k2="-1" k3="1"/>
<feColorMatrix type="matrix" values="0 0 0 0 1 0 0 0 0 0.807843 0 0 0 0 0.423529 0 0 0 0.05 0"/>
<feBlend mode="normal" in2="shape" result="effect1_innerShadow_7_1820"/>
</filter>
<filter id="filter11_i_7_1820" x="97.7295" y="174.659" width="43.5674" height="11.1331" filterUnits="userSpaceOnUse" color-interpolation-filters="sRGB">
<feFlood flood-opacity="0" result="BackgroundImageFix"/>
<feBlend mode="normal" in="SourceGraphic" in2="BackgroundImageFix" result="shape"/>
<feColorMatrix in="SourceAlpha" type="matrix" values="0 0 0 0 0 0 0 0 0 0 0 0 0 0 0 0 0 0 127 0" result="hardAlpha"/>
<feOffset/>
<feGaussianBlur stdDeviation="4"/>
<feComposite in2="hardAlpha" operator="arithmetic" k2="-1" k3="1"/>
<feColorMatrix type="matrix" values="0 0 0 0 1 0 0 0 0 0.807843 0 0 0 0 0.423529 0 0 0 0.05 0"/>
<feBlend mode="normal" in2="shape" result="effect1_innerShadow_7_1820"/>
</filter>
<filter id="filter12_i_7_1820" x="97.7295" y="310.105" width="43.5674" height="11.1331" filterUnits="userSpaceOnUse" color-interpolation-filters="sRGB">
<feFlood flood-opacity="0" result="BackgroundImageFix"/>
<feBlend mode="normal" in="SourceGraphic" in2="BackgroundImageFix" result="shape"/>
<feColorMatrix in="SourceAlpha" type="matrix" values="0 0 0 0 0 0 0 0 0 0 0 0 0 0 0 0 0 0 127 0" result="hardAlpha"/>
<feOffset/>
<feGaussianBlur stdDeviation="4"/>
<feComposite in2="hardAlpha" operator="arithmetic" k2="-1" k3="1"/>
<feColorMatrix type="matrix" values="0 0 0 0 1 0 0 0 0 0.807843 0 0 0 0 0.423529 0 0 0 0.05 0"/>
<feBlend mode="normal" in2="shape" result="effect1_innerShadow_7_1820"/>
</filter>
<filter id="filter13_i_7_1820" x="248.866" y="208.521" width="43.5674" height="11.1329" filterUnits="userSpaceOnUse" color-interpolation-filters="sRGB">
<feFlood flood-opacity="0" result="BackgroundImageFix"/>
<feBlend mode="normal" in="SourceGraphic" in2="BackgroundImageFix" result="shape"/>
<feColorMatrix in="SourceAlpha" type="matrix" values="0 0 0 0 0 0 0 0 0 0 0 0 0 0 0 0 0 0 127 0" result="hardAlpha"/>
<feOffset/>
<feGaussianBlur stdDeviation="4"/>
<feComposite in2="hardAlpha" operator="arithmetic" k2="-1" k3="1"/>
<feColorMatrix type="matrix" values="0 0 0 0 1 0 0 0 0 0.807843 0 0 0 0 0.423529 0 0 0 0.05 0"/>
<feBlend mode="normal" in2="shape" result="effect1_innerShadow_7_1820"/>
</filter>
<filter id="filter14_i_7_1820" x="248.866" y="343.967" width="43.5674" height="11.1331" filterUnits="userSpaceOnUse" color-interpolation-filters="sRGB">
<feFlood flood-opacity="0" result="BackgroundImageFix"/>
<feBlend mode="normal" in="SourceGraphic" in2="BackgroundImageFix" result="shape"/>
<feColorMatrix in="SourceAlpha" type="matrix" values="0 0 0 0 0 0 0 0 0 0 0 0 0 0 0 0 0 0 127 0" result="hardAlpha"/>
<feOffset/>
<feGaussianBlur stdDeviation="4"/>
<feComposite in2="hardAlpha" operator="arithmetic" k2="-1" k3="1"/>
<feColorMatrix type="matrix" values="0 0 0 0 1 0 0 0 0 0.807843 0 0 0 0 0.423529 0 0 0 0.05 0"/>
<feBlend mode="normal" in2="shape" result="effect1_innerShadow_7_1820"/>
</filter>
<filter id="filter15_i_7_1820" x="22.1631" y="208.521" width="43.5674" height="11.1329" filterUnits="userSpaceOnUse" color-interpolation-filters="sRGB">
<feFlood flood-opacity="0" result="BackgroundImageFix"/>
<feBlend mode="normal" in="SourceGraphic" in2="BackgroundImageFix" result="shape"/>
<feColorMatrix in="SourceAlpha" type="matrix" values="0 0 0 0 0 0 0 0 0 0 0 0 0 0 0 0 0 0 127 0" result="hardAlpha"/>
<feOffset/>
<feGaussianBlur stdDeviation="4"/>
<feComposite in2="hardAlpha" operator="arithmetic" k2="-1" k3="1"/>
<feColorMatrix type="matrix" values="0 0 0 0 1 0 0 0 0 0.807843 0 0 0 0 0.423529 0 0 0 0.05 0"/>
<feBlend mode="normal" in2="shape" result="effect1_innerShadow_7_1820"/>
</filter>
<filter id="filter16_i_7_1820" x="22.1631" y="343.967" width="43.5674" height="11.1331" filterUnits="userSpaceOnUse" color-interpolation-filters="sRGB">
<feFlood flood-opacity="0" result="BackgroundImageFix"/>
<feBlend mode="normal" in="SourceGraphic" in2="BackgroundImageFix" result="shape"/>
<feColorMatrix in="SourceAlpha" type="matrix" values="0 0 0 0 0 0 0 0 0 0 0 0 0 0 0 0 0 0 127 0" result="hardAlpha"/>
<feOffset/>
<feGaussianBlur stdDeviation="4"/>
<feComposite in2="hardAlpha" operator="arithmetic" k2="-1" k3="1"/>
<feColorMatrix type="matrix" values="0 0 0 0 1 0 0 0 0 0.807843 0 0 0 0 0.423529 0 0 0 0.05 0"/>
<feBlend mode="normal" in2="shape" result="effect1_innerShadow_7_1820"/>
</filter>
<filter id="filter17_i_7_1820" x="173.3" y="208.521" width="43.5674" height="11.1329" filterUnits="userSpaceOnUse" color-interpolation-filters="sRGB">
<feFlood flood-opacity="0" result="BackgroundImageFix"/>
<feBlend mode="normal" in="SourceGraphic" in2="BackgroundImageFix" result="shape"/>
<feColorMatrix in="SourceAlpha" type="matrix" values="0 0 0 0 0 0 0 0 0 0 0 0 0 0 0 0 0 0 127 0" result="hardAlpha"/>
<feOffset/>
<feGaussianBlur stdDeviation="4"/>
<feComposite in2="hardAlpha" operator="arithmetic" k2="-1" k3="1"/>
<feColorMatrix type="matrix" values="0 0 0 0 1 0 0 0 0 0.807843 0 0 0 0 0.423529 0 0 0 0.05 0"/>
<feBlend mode="normal" in2="shape" result="effect1_innerShadow_7_1820"/>
</filter>
<filter id="filter18_i_7_1820" x="173.3" y="343.967" width="43.5674" height="11.1331" filterUnits="userSpaceOnUse" color-interpolation-filters="sRGB">
<feFlood flood-opacity="0" result="BackgroundImageFix"/>
<feBlend mode="normal" in="SourceGraphic" in2="BackgroundImageFix" result="shape"/>
<feColorMatrix in="SourceAlpha" type="matrix" values="0 0 0 0 0 0 0 0 0 0 0 0 0 0 0 0 0 0 127 0" result="hardAlpha"/>
<feOffset/>
<feGaussianBlur stdDeviation="4"/>
<feComposite in2="hardAlpha" operator="arithmetic" k2="-1" k3="1"/>
<feColorMatrix type="matrix" values="0 0 0 0 1 0 0 0 0 0.807843 0 0 0 0 0.423529 0 0 0 0.05 0"/>
<feBlend mode="normal" in2="shape" result="effect1_innerShadow_7_1820"/>
</filter>
<filter id="filter19_i_7_1820" x="97.7295" y="208.521" width="43.5674" height="11.1329" filterUnits="userSpaceOnUse" color-interpolation-filters="sRGB">
<feFlood flood-opacity="0" result="BackgroundImageFix"/>
<feBlend mode="normal" in="SourceGraphic" in2="BackgroundImageFix" result="shape"/>
<feColorMatrix in="SourceAlpha" type="matrix" values="0 0 0 0 0 0 0 0 0 0 0 0 0 0 0 0 0 0 127 0" result="hardAlpha"/>
<feOffset/>
<feGaussianBlur stdDeviation="4"/>
<feComposite in2="hardAlpha" operator="arithmetic" k2="-1" k3="1"/>
<feColorMatrix type="matrix" values="0 0 0 0 1 0 0 0 0 0.807843 0 0 0 0 0.423529 0 0 0 0.05 0"/>
<feBlend mode="normal" in2="shape" result="effect1_innerShadow_7_1820"/>
</filter>
<filter id="filter20_i_7_1820" x="97.7295" y="343.967" width="43.5674" height="11.1331" filterUnits="userSpaceOnUse" color-interpolation-filters="sRGB">
<feFlood flood-opacity="0" result="BackgroundImageFix"/>
<feBlend mode="normal" in="SourceGraphic" in2="BackgroundImageFix" result="shape"/>
<feColorMatrix in="SourceAlpha" type="matrix" values="0 0 0 0 0 0 0 0 0 0 0 0 0 0 0 0 0 0 127 0" result="hardAlpha"/>
<feOffset/>
<feGaussianBlur stdDeviation="4"/>
<feComposite in2="hardAlpha" operator="arithmetic" k2="-1" k3="1"/>
<feColorMatrix type="matrix" values="0 0 0 0 1 0 0 0 0 0.807843 0 0 0 0 0.423529 0 0 0 0.05 0"/>
<feBlend mode="normal" in2="shape" result="effect1_innerShadow_7_1820"/>
</filter>
<filter id="filter21_i_7_1820" x="248.866" y="242.382" width="43.5674" height="11.1329" filterUnits="userSpaceOnUse" color-interpolation-filters="sRGB">
<feFlood flood-opacity="0" result="BackgroundImageFix"/>
<feBlend mode="normal" in="SourceGraphic" in2="BackgroundImageFix" result="shape"/>
<feColorMatrix in="SourceAlpha" type="matrix" values="0 0 0 0 0 0 0 0 0 0 0 0 0 0 0 0 0 0 127 0" result="hardAlpha"/>
<feOffset/>
<feGaussianBlur stdDeviation="4"/>
<feComposite in2="hardAlpha" operator="arithmetic" k2="-1" k3="1"/>
<feColorMatrix type="matrix" values="0 0 0 0 1 0 0 0 0 0.807843 0 0 0 0 0.423529 0 0 0 0.05 0"/>
<feBlend mode="normal" in2="shape" result="effect1_innerShadow_7_1820"/>
</filter>
<filter id="filter22_i_7_1820" x="22.1631" y="242.382" width="43.5674" height="11.1329" filterUnits="userSpaceOnUse" color-interpolation-filters="sRGB">
<feFlood flood-opacity="0" result="BackgroundImageFix"/>
<feBlend mode="normal" in="SourceGraphic" in2="BackgroundImageFix" result="shape"/>
<feColorMatrix in="SourceAlpha" type="matrix" values="0 0 0 0 0 0 0 0 0 0 0 0 0 0 0 0 0 0 127 0" result="hardAlpha"/>
<feOffset/>
<feGaussianBlur stdDeviation="4"/>
<feComposite in2="hardAlpha" operator="arithmetic" k2="-1" k3="1"/>
<feColorMatrix type="matrix" values="0 0 0 0 1 0 0 0 0 0.807843 0 0 0 0 0.423529 0 0 0 0.05 0"/>
<feBlend mode="normal" in2="shape" result="effect1_innerShadow_7_1820"/>
</filter>
<filter id="filter23_i_7_1820" x="173.3" y="242.382" width="43.5674" height="11.1329" filterUnits="userSpaceOnUse" color-interpolation-filters="sRGB">
<feFlood flood-opacity="0" result="BackgroundImageFix"/>
<feBlend mode="normal" in="SourceGraphic" in2="BackgroundImageFix" result="shape"/>
<feColorMatrix in="SourceAlpha" type="matrix" values="0 0 0 0 0 0 0 0 0 0 0 0 0 0 0 0 0 0 127 0" result="hardAlpha"/>
<feOffset/>
<feGaussianBlur stdDeviation="4"/>
<feComposite in2="hardAlpha" operator="arithmetic" k2="-1" k3="1"/>
<feColorMatrix type="matrix" values="0 0 0 0 1 0 0 0 0 0.807843 0 0 0 0 0.423529 0 0 0 0.05 0"/>
<feBlend mode="normal" in2="shape" result="effect1_innerShadow_7_1820"/>
</filter>
<filter id="filter24_i_7_1820" x="97.7295" y="242.382" width="43.5674" height="11.1329" filterUnits="userSpaceOnUse" color-interpolation-filters="sRGB">
<feFlood flood-opacity="0" result="BackgroundImageFix"/>
<feBlend mode="normal" in="SourceGraphic" in2="BackgroundImageFix" result="shape"/>
<feColorMatrix in="SourceAlpha" type="matrix" values="0 0 0 0 0 0 0 0 0 0 0 0 0 0 0 0 0 0 127 0" result="hardAlpha"/>
<feOffset/>
<feGaussianBlur stdDeviation="4"/>
<feComposite in2="hardAlpha" operator="arithmetic" k2="-1" k3="1"/>
<feColorMatrix type="matrix" values="0 0 0 0 1 0 0 0 0 0.807843 0 0 0 0 0.423529 0 0 0 0.05 0"/>
<feBlend mode="normal" in2="shape" result="effect1_innerShadow_7_1820"/>
</filter>
<filter id="filter25_i_7_1820" x="248.866" y="276.244" width="43.5674" height="11.1331" filterUnits="userSpaceOnUse" color-interpolation-filters="sRGB">
<feFlood flood-opacity="0" result="BackgroundImageFix"/>
<feBlend mode="normal" in="SourceGraphic" in2="BackgroundImageFix" result="shape"/>
<feColorMatrix in="SourceAlpha" type="matrix" values="0 0 0 0 0 0 0 0 0 0 0 0 0 0 0 0 0 0 127 0" result="hardAlpha"/>
<feOffset/>
<feGaussianBlur stdDeviation="4"/>
<feComposite in2="hardAlpha" operator="arithmetic" k2="-1" k3="1"/>
<feColorMatrix type="matrix" values="0 0 0 0 1 0 0 0 0 0.807843 0 0 0 0 0.423529 0 0 0 0.05 0"/>
<feBlend mode="normal" in2="shape" result="effect1_innerShadow_7_1820"/>
</filter>
<filter id="filter26_i_7_1820" x="324.433" y="174.659" width="43.5674" height="11.1331" filterUnits="userSpaceOnUse" color-interpolation-filters="sRGB">
<feFlood flood-opacity="0" result="BackgroundImageFix"/>
<feBlend mode="normal" in="SourceGraphic" in2="BackgroundImageFix" result="shape"/>
<feColorMatrix in="SourceAlpha" type="matrix" values="0 0 0 0 0 0 0 0 0 0 0 0 0 0 0 0 0 0 127 0" result="hardAlpha"/>
<feOffset/>
<feGaussianBlur stdDeviation="4"/>
<feComposite in2="hardAlpha" operator="arithmetic" k2="-1" k3="1"/>
<feColorMatrix type="matrix" values="0 0 0 0 1 0 0 0 0 0.807843 0 0 0 0 0.423529 0 0 0 0.05 0"/>
<feBlend mode="normal" in2="shape" result="effect1_innerShadow_7_1820"/>
</filter>
<filter id="filter27_i_7_1820" x="324.433" y="310.105" width="43.5674" height="11.1331" filterUnits="userSpaceOnUse" color-interpolation-filters="sRGB">
<feFlood flood-opacity="0" result="BackgroundImageFix"/>
<feBlend mode="normal" in="SourceGraphic" in2="BackgroundImageFix" result="shape"/>
<feColorMatrix in="SourceAlpha" type="matrix" values="0 0 0 0 0 0 0 0 0 0 0 0 0 0 0 0 0 0 127 0" result="hardAlpha"/>
<feOffset/>
<feGaussianBlur stdDeviation="4"/>
<feComposite in2="hardAlpha" operator="arithmetic" k2="-1" k3="1"/>
<feColorMatrix type="matrix" values="0 0 0 0 1 0 0 0 0 0.807843 0 0 0 0 0.423529 0 0 0 0.05 0"/>
<feBlend mode="normal" in2="shape" result="effect1_innerShadow_7_1820"/>
</filter>
<filter id="filter28_i_7_1820" x="324.433" y="208.521" width="43.5674" height="11.1329" filterUnits="userSpaceOnUse" color-interpolation-filters="sRGB">
<feFlood flood-opacity="0" result="BackgroundImageFix"/>
<feBlend mode="normal" in="SourceGraphic" in2="BackgroundImageFix" result="shape"/>
<feColorMatrix in="SourceAlpha" type="matrix" values="0 0 0 0 0 0 0 0 0 0 0 0 0 0 0 0 0 0 127 0" result="hardAlpha"/>
<feOffset/>
<feGaussianBlur stdDeviation="4"/>
<feComposite in2="hardAlpha" operator="arithmetic" k2="-1" k3="1"/>
<feColorMatrix type="matrix" values="0 0 0 0 1 0 0 0 0 0.807843 0 0 0 0 0.423529 0 0 0 0.05 0"/>
<feBlend mode="normal" in2="shape" result="effect1_innerShadow_7_1820"/>
</filter>
<filter id="filter29_i_7_1820" x="324.433" y="343.967" width="43.5674" height="11.1331" filterUnits="userSpaceOnUse" color-interpolation-filters="sRGB">
<feFlood flood-opacity="0" result="BackgroundImageFix"/>
<feBlend mode="normal" in="SourceGraphic" in2="BackgroundImageFix" result="shape"/>
<feColorMatrix in="SourceAlpha" type="matrix" values="0 0 0 0 0 0 0 0 0 0 0 0 0 0 0 0 0 0 127 0" result="hardAlpha"/>
<feOffset/>
<feGaussianBlur stdDeviation="4"/>
<feComposite in2="hardAlpha" operator="arithmetic" k2="-1" k3="1"/>
<feColorMatrix type="matrix" values="0 0 0 0 1 0 0 0 0 0.807843 0 0 0 0 0.423529 0 0 0 0.05 0"/>
<feBlend mode="normal" in2="shape" result="effect1_innerShadow_7_1820"/>
</filter>
<filter id="filter30_i_7_1820" x="324.433" y="242.382" width="43.5674" height="11.1329" filterUnits="userSpaceOnUse" color-interpolation-filters="sRGB">
<feFlood flood-opacity="0" result="BackgroundImageFix"/>
<feBlend mode="normal" in="SourceGraphic" in2="BackgroundImageFix" result="shape"/>
<feColorMatrix in="SourceAlpha" type="matrix" values="0 0 0 0 0 0 0 0 0 0 0 0 0 0 0 0 0 0 127 0" result="hardAlpha"/>
<feOffset/>
<feGaussianBlur stdDeviation="4"/>
<feComposite in2="hardAlpha" operator="arithmetic" k2="-1" k3="1"/>
<feColorMatrix type="matrix" values="0 0 0 0 1 0 0 0 0 0.807843 0 0 0 0 0.423529 0 0 0 0.05 0"/>
<feBlend mode="normal" in2="shape" result="effect1_innerShadow_7_1820"/>
</filter>
<filter id="filter31_i_7_1820" x="324.433" y="276.244" width="43.5674" height="11.1331" filterUnits="userSpaceOnUse" color-interpolation-filters="sRGB">
<feFlood flood-opacity="0" result="BackgroundImageFix"/>
<feBlend mode="normal" in="SourceGraphic" in2="BackgroundImageFix" result="shape"/>
<feColorMatrix in="SourceAlpha" type="matrix" values="0 0 0 0 0 0 0 0 0 0 0 0 0 0 0 0 0 0 127 0" result="hardAlpha"/>
<feOffset/>
<feGaussianBlur stdDeviation="4"/>
<feComposite in2="hardAlpha" operator="arithmetic" k2="-1" k3="1"/>
<feColorMatrix type="matrix" values="0 0 0 0 1 0 0 0 0 0.807843 0 0 0 0 0.423529 0 0 0 0.05 0"/>
<feBlend mode="normal" in2="shape" result="effect1_innerShadow_7_1820"/>
</filter>
<filter id="filter32_i_7_1820" x="22.1631" y="276.244" width="43.5674" height="11.1331" filterUnits="userSpaceOnUse" color-interpolation-filters="sRGB">
<feFlood flood-opacity="0" result="BackgroundImageFix"/>
<feBlend mode="normal" in="SourceGraphic" in2="BackgroundImageFix" result="shape"/>
<feColorMatrix in="SourceAlpha" type="matrix" values="0 0 0 0 0 0 0 0 0 0 0 0 0 0 0 0 0 0 127 0" result="hardAlpha"/>
<feOffset/>
<feGaussianBlur stdDeviation="4"/>
<feComposite in2="hardAlpha" operator="arithmetic" k2="-1" k3="1"/>
<feColorMatrix type="matrix" values="0 0 0 0 1 0 0 0 0 0.807843 0 0 0 0 0.423529 0 0 0 0.05 0"/>
<feBlend mode="normal" in2="shape" result="effect1_innerShadow_7_1820"/>
</filter>
<filter id="filter33_i_7_1820" x="173.3" y="276.244" width="43.5674" height="11.1331" filterUnits="userSpaceOnUse" color-interpolation-filters="sRGB">
<feFlood flood-opacity="0" result="BackgroundImageFix"/>
<feBlend mode="normal" in="SourceGraphic" in2="BackgroundImageFix" result="shape"/>
<feColorMatrix in="SourceAlpha" type="matrix" values="0 0 0 0 0 0 0 0 0 0 0 0 0 0 0 0 0 0 127 0" result="hardAlpha"/>
<feOffset/>
<feGaussianBlur stdDeviation="4"/>
<feComposite in2="hardAlpha" operator="arithmetic" k2="-1" k3="1"/>
<feColorMatrix type="matrix" values="0 0 0 0 1 0 0 0 0 0.807843 0 0 0 0 0.423529 0 0 0 0.05 0"/>
<feBlend mode="normal" in2="shape" result="effect1_innerShadow_7_1820"/>
</filter>
<filter id="filter34_i_7_1820" x="97.7295" y="276.244" width="43.5674" height="11.1331" filterUnits="userSpaceOnUse" color-interpolation-filters="sRGB">
<feFlood flood-opacity="0" result="BackgroundImageFix"/>
<feBlend mode="normal" in="SourceGraphic" in2="BackgroundImageFix" result="shape"/>
<feColorMatrix in="SourceAlpha" type="matrix" values="0 0 0 0 0 0 0 0 0 0 0 0 0 0 0 0 0 0 127 0" result="hardAlpha"/>
<feOffset/>
<feGaussianBlur stdDeviation="4"/>
<feComposite in2="hardAlpha" operator="arithmetic" k2="-1" k3="1"/>
<feColorMatrix type="matrix" values="0 0 0 0 1 0 0 0 0 0.807843 0 0 0 0 0.423529 0 0 0 0.05 0"/>
<feBlend mode="normal" in2="shape" result="effect1_innerShadow_7_1820"/>
</filter>
<filter id="filter35_i_7_1820" x="863" y="37" width="434" height="434" filterUnits="userSpaceOnUse" color-interpolation-filters="sRGB">
<feFlood flood-opacity="0" result="BackgroundImageFix"/>
<feBlend mode="normal" in="SourceGraphic" in2="BackgroundImageFix" result="shape"/>
<feColorMatrix in="SourceAlpha" type="matrix" values="0 0 0 0 0 0 0 0 0 0 0 0 0 0 0 0 0 0 127 0" result="hardAlpha"/>
<feOffset/>
<feGaussianBlur stdDeviation="20"/>
<feComposite in2="hardAlpha" operator="arithmetic" k2="-1" k3="1"/>
<feColorMatrix type="matrix" values="0 0 0 0 0.354167 0 0 0 0 0.336458 0 0 0 0 0.301042 0 0 0 0.1 0"/>
<feBlend mode="normal" in2="shape" result="effect1_innerShadow_7_1820"/>
</filter>
<linearGradient id="paint0_linear_7_1820" x1="670" y1="599.333" x2="670" y2="902.516" gradientUnits="userSpaceOnUse">
<stop stop-color="white"/>
<stop offset="1" stop-color="white" stop-opacity="0"/>
</linearGradient>
<linearGradient id="paint1_linear_7_1820" x1="687.429" y1="1497.55" x2="784.846" y2="-333.562" gradientUnits="userSpaceOnUse">
<stop stop-color="white" stop-opacity="0.35"/>
<stop offset="1" stop-color="white"/>
</linearGradient>
<clipPath id="clip0_7_1820">
<rect width="1340" height="983" rx="40" fill="white"/>
</clipPath>
<clipPath id="clip1_7_1820">
<rect width="1343" height="1242" fill="white" transform="matrix(-1 0 0 1 1343 -10)"/>
</clipPath>
</defs>
</svg>
