<svg width="51" height="50" viewBox="0 0 51 50" fill="none" xmlns="http://www.w3.org/2000/svg">
<path fill-rule="evenodd" clip-rule="evenodd" d="M25.5012 8.33331C20.9748 8.33331 20.4067 8.3531 18.6289 8.43401C16.8546 8.51526 15.6435 8.79616 14.5838 9.20831C13.4876 9.63401 12.5577 10.2035 11.6313 11.1302C10.7042 12.0566 10.1348 12.9864 9.70767 14.0823C9.29447 15.1423 9.01322 16.3538 8.93336 18.1274C8.85384 19.9052 8.83301 20.4736 8.83301 25C8.83301 29.5264 8.85315 30.0927 8.9337 31.8705C9.0153 33.6448 9.29621 34.8559 9.70802 35.9156C10.1341 37.0118 10.7035 37.9416 11.6303 38.868C12.5563 39.7951 13.4862 40.3659 14.5817 40.7916C15.6421 41.2038 16.8536 41.4847 18.6276 41.5659C20.4053 41.6469 20.9731 41.6666 25.4992 41.6666C30.0259 41.6666 30.5923 41.6469 32.3701 41.5659C34.1444 41.4847 35.3569 41.2038 36.4173 40.7916C37.5132 40.3659 38.4416 39.7951 39.3677 38.868C40.2948 37.9416 40.8642 37.0118 41.2913 35.9159C41.7011 34.8559 41.9823 33.6444 42.0656 31.8708C42.1455 30.093 42.1663 29.5264 42.1663 25C42.1663 20.4736 42.1455 19.9055 42.0656 18.1278C41.9823 16.3535 41.7011 15.1423 41.2913 14.0826C40.8642 12.9864 40.2948 12.0566 39.3677 11.1302C38.4406 10.2031 37.5135 9.63366 36.4163 9.20831C35.3538 8.79616 34.1419 8.51526 32.3676 8.43401C30.5898 8.3531 30.0239 8.33331 25.496 8.33331L25.5012 8.33331Z" fill="#151826"/>
<path fill-rule="evenodd" clip-rule="evenodd" d="M35.0016 14.1041C33.5639 14.1041 32.3975 15.2692 32.3975 16.7074C32.3975 18.1451 33.5639 19.3115 35.0016 19.3115C36.4393 19.3115 37.6058 18.1451 37.6058 16.7074C37.6058 15.2696 36.4393 14.1032 35.0016 14.1032V14.1041Z" fill="white"/>
<path fill-rule="evenodd" clip-rule="evenodd" d="M25.5009 19.4446C28.569 19.4446 31.0565 21.9317 31.0565 25.0001C31.0565 28.0682 28.569 30.5557 25.5009 30.5557C22.4325 30.5557 19.9453 28.0682 19.9453 25.0001C19.9453 21.9317 22.4325 19.4446 25.5009 19.4446V19.4446Z" stroke="white" stroke-width="2"/>
</svg>
