<svg width="51" height="50" viewBox="0 0 51 50" fill="none" xmlns="http://www.w3.org/2000/svg">
<path d="M16 19H10V42H16V19Z" fill="#151826"/>
<path d="M12.5061 17C15.0461 17 17 14.8478 17 12.5C17 9.95654 15.0461 8 12.5061 8C9.96618 8 8.01236 10.1522 8.01236 12.5C7.81696 15.0435 9.96618 17 12.5061 17Z" fill="#151826"/>
<path d="M28.1639 29.8181C28.1639 26.5454 29.6719 24.5455 32.6884 24.5455C35.3278 24.5455 36.6475 26.3638 36.6475 29.8181C36.6475 33.0911 36.6475 42 36.6475 42H44C44 42 44 33.6363 44 27.2729C44 21.0908 40.4182 18 35.3278 18C30.2376 18 28.1639 21.8183 28.1639 21.8183V18.7273H21V41.8183H28.1639C28.1639 42 28.1639 33.4547 28.1639 29.8181Z" fill="#151826"/>
</svg>
