<svg width="51" height="50" viewBox="0 0 51 50" fill="none" xmlns="http://www.w3.org/2000/svg">
<path d="M40.4181 16.5131C38.4748 16.5131 36.6817 15.8693 35.2418 14.7832C33.5903 13.5382 32.4038 11.7119 31.9848 9.60685C31.8811 9.08676 31.8252 8.55003 31.8199 8H26.2684V23.1693L26.2617 31.4783C26.2617 33.6997 24.8152 35.5832 22.8099 36.2457C22.228 36.4379 21.5995 36.529 20.945 36.4931C20.1097 36.4472 19.3269 36.1951 18.6465 35.7881C17.1986 34.9221 16.2169 33.3512 16.1903 31.5541C16.1484 28.7454 18.419 26.4555 21.2257 26.4555C21.7797 26.4555 22.3118 26.546 22.8099 26.7103V22.5641V21.0736C22.2845 20.9958 21.7498 20.9553 21.2091 20.9553C18.137 20.9553 15.2638 22.2322 13.21 24.5328C11.6577 26.2713 10.7266 28.4894 10.5829 30.8152C10.3947 33.8706 11.5127 36.7751 13.6809 38.918C13.9995 39.2326 14.334 39.5245 14.6839 39.7939C16.5428 41.2245 18.8154 42 21.2091 42C21.7498 42 22.2845 41.9601 22.8099 41.8823C25.046 41.5511 27.1091 40.5275 28.7372 38.918C30.7378 36.9407 31.8432 34.3156 31.8551 31.5215L31.8265 19.1136C32.7809 19.8499 33.8245 20.4591 34.9445 20.932C36.6863 21.6669 38.5333 22.0394 40.4341 22.0387V18.0076V16.5118C40.4354 16.5131 40.4195 16.5131 40.4181 16.5131Z" fill="#151826"/>
</svg>
