<svg width="51" height="50" viewBox="0 0 51 50" fill="none" xmlns="http://www.w3.org/2000/svg">
<path d="M46.3337 8.35205C44.52 9.60686 42.5119 10.5666 40.3867 11.1943C39.246 9.90787 37.7301 8.99609 36.044 8.58227C34.3578 8.16844 32.5827 8.27254 30.9588 8.88047C29.3349 9.48841 27.9406 10.5709 26.9643 11.9814C25.9881 13.392 25.477 15.0626 25.5003 16.7673V18.6249C22.172 18.7096 18.874 17.9856 15.9 16.5173C12.926 15.0491 10.3684 12.8822 8.45487 10.2097C8.45487 10.2097 0.879113 26.9287 17.9246 34.3594C14.0241 36.9563 9.37752 38.2585 4.66699 38.0747C21.7124 47.363 42.5458 38.0747 42.5458 16.7115C42.544 16.1941 42.4933 15.6779 42.3943 15.1697C44.3272 13.2999 45.6913 10.9392 46.3337 8.35205Z" fill="#151826"/>
</svg>
