<svg width="51" height="50" viewBox="0 0 51 50" fill="none" xmlns="http://www.w3.org/2000/svg">
<g clip-path="url(#clip0_7_1943)">
<path d="M49.4533 13.5511C49.1833 12.5278 48.6335 11.5903 47.8594 10.8331C47.0853 10.076 46.1143 9.52604 45.0444 9.23888C41.1356 8.33331 25.5 8.33331 25.5 8.33331C25.5 8.33331 9.86445 8.33331 5.95556 9.32512C4.88572 9.61228 3.91471 10.1622 3.14059 10.9194C2.36647 11.6765 1.81666 12.6141 1.5467 13.6373C0.831315 17.4009 0.481382 21.2188 0.501299 25.0431C0.475799 28.8962 0.825754 32.7432 1.5467 36.5351C1.84432 37.5266 2.40644 38.4285 3.17876 39.1537C3.95108 39.8788 4.90748 40.4028 5.95556 40.6748C9.86445 41.6666 25.5 41.6666 25.5 41.6666C25.5 41.6666 41.1356 41.6666 45.0444 40.6748C46.1143 40.3877 47.0853 39.8378 47.8594 39.0806C48.6335 38.3235 49.1833 37.3859 49.4533 36.3626C50.1632 32.6274 50.5131 28.8386 50.4987 25.0431C50.5242 21.1901 50.1742 17.343 49.4533 13.5511V13.5511Z" fill="#151826"/>
<path d="M22.375 30.2084L30.7083 25L22.375 19.7917V30.2084Z" fill="white"/>
<path fill-rule="evenodd" clip-rule="evenodd" d="M21.8697 18.8806C22.2009 18.697 22.6056 18.7076 22.9268 18.9083L31.2601 24.1167C31.5647 24.307 31.7497 24.6408 31.7497 25C31.7497 25.3592 31.5647 25.693 31.2601 25.8833L22.9268 31.0917C22.6056 31.2924 22.2009 31.303 21.8697 31.1194C21.5385 30.9359 21.333 30.587 21.333 30.2083V19.7917C21.333 19.413 21.5385 19.0641 21.8697 18.8806ZM23.4163 21.6711V28.3289L28.7426 25L23.4163 21.6711Z" fill="white"/>
</g>
<defs>
<clipPath id="clip0_7_1943">
<rect width="50" height="50" fill="white" transform="translate(0.5)"/>
</clipPath>
</defs>
</svg>
