<svg width="100" height="100" viewBox="0 0 100 100" fill="none" xmlns="http://www.w3.org/2000/svg">
<g clip-path="url(#clip0_7_1998)">
<mask id="path-1-inside-1_7_1998" fill="white">
<path d="M80 50C80.0008 45.4586 78.9705 40.9762 76.9869 36.8909C75.0032 32.8056 72.118 29.224 68.5486 26.4161C64.9793 23.6082 60.819 21.6473 56.3815 20.6812C51.944 19.7152 47.3451 19.7692 42.9315 20.8393C38.518 21.9093 34.4049 23.9674 30.9025 26.8584C27.4001 29.7494 24.5998 33.3978 22.7127 37.5286C20.8256 41.6594 19.9009 46.1647 20.0084 50.7048C20.1159 55.245 21.2528 59.7015 23.3333 63.7383L20.1667 74.8333C19.9641 75.5273 19.9518 76.263 20.1311 76.9633C20.3104 77.6636 20.6748 78.3029 21.1859 78.8141C21.6971 79.3253 22.3364 79.6896 23.0367 79.8689C23.737 80.0482 24.4727 80.0359 25.1667 79.8333L36.25 76.6533C40.8224 79.0113 45.9243 80.1537 51.0655 79.971C56.2068 79.7883 61.2148 78.2865 65.6082 75.6099C70.0016 72.9334 73.6329 69.172 76.1533 64.6871C78.6736 60.2022 79.9983 55.1445 80 50ZM36.4333 73.2C36.2783 73.2001 36.124 73.222 35.975 73.265L24.2417 76.6317C24.1201 76.6687 23.9908 76.672 23.8676 76.6412C23.7443 76.6103 23.6318 76.5465 23.5421 76.4566C23.4523 76.3667 23.3887 76.254 23.3581 76.1307C23.3275 76.0074 23.331 75.8781 23.3683 75.7567L26.72 64.0067C26.8402 63.5849 26.7893 63.1328 26.5783 62.7483C23.5045 57.1092 22.5659 50.5512 23.9346 44.2763C25.3032 38.0013 28.8874 32.4298 34.0303 28.5829C39.1731 24.7359 45.5301 22.8712 51.9361 23.3306C58.3422 23.7899 64.3681 26.5425 68.9094 31.0839C73.4508 35.6253 76.2034 41.6512 76.6627 48.0572C77.1221 54.4632 75.2574 60.8202 71.4105 65.9631C67.5635 71.1059 61.992 74.6901 55.7171 76.0588C49.4421 77.4274 42.8841 76.4888 37.245 73.415C36.9972 73.2752 36.7178 73.2012 36.4333 73.2Z"/>
</mask>
<path d="M80 50C80.0008 45.4586 78.9705 40.9762 76.9869 36.8909C75.0032 32.8056 72.118 29.224 68.5486 26.4161C64.9793 23.6082 60.819 21.6473 56.3815 20.6812C51.944 19.7152 47.3451 19.7692 42.9315 20.8393C38.518 21.9093 34.4049 23.9674 30.9025 26.8584C27.4001 29.7494 24.5998 33.3978 22.7127 37.5286C20.8256 41.6594 19.9009 46.1647 20.0084 50.7048C20.1159 55.245 21.2528 59.7015 23.3333 63.7383L20.1667 74.8333C19.9641 75.5273 19.9518 76.263 20.1311 76.9633C20.3104 77.6636 20.6748 78.3029 21.1859 78.8141C21.6971 79.3253 22.3364 79.6896 23.0367 79.8689C23.737 80.0482 24.4727 80.0359 25.1667 79.8333L36.25 76.6533C40.8224 79.0113 45.9243 80.1537 51.0655 79.971C56.2068 79.7883 61.2148 78.2865 65.6082 75.6099C70.0016 72.9334 73.6329 69.172 76.1533 64.6871C78.6736 60.2022 79.9983 55.1445 80 50ZM36.4333 73.2C36.2783 73.2001 36.124 73.222 35.975 73.265L24.2417 76.6317C24.1201 76.6687 23.9908 76.672 23.8676 76.6412C23.7443 76.6103 23.6318 76.5465 23.5421 76.4566C23.4523 76.3667 23.3887 76.254 23.3581 76.1307C23.3275 76.0074 23.331 75.8781 23.3683 75.7567L26.72 64.0067C26.8402 63.5849 26.7893 63.1328 26.5783 62.7483C23.5045 57.1092 22.5659 50.5512 23.9346 44.2763C25.3032 38.0013 28.8874 32.4298 34.0303 28.5829C39.1731 24.7359 45.5301 22.8712 51.9361 23.3306C58.3422 23.7899 64.3681 26.5425 68.9094 31.0839C73.4508 35.6253 76.2034 41.6512 76.6627 48.0572C77.1221 54.4632 75.2574 60.8202 71.4105 65.9631C67.5635 71.1059 61.992 74.6901 55.7171 76.0588C49.4421 77.4274 42.8841 76.4888 37.245 73.415C36.9972 73.2752 36.7178 73.2012 36.4333 73.2Z" fill="#332E85"/>
<path d="M80 50L88.5333 50.0029V50.0015L80 50ZM23.3333 63.7383L31.539 66.0803L32.4661 62.8319L30.9185 59.829L23.3333 63.7383ZM20.1667 74.8333L28.358 77.2249L28.3653 77.2001L28.3723 77.1753L20.1667 74.8333ZM25.1667 79.8333L22.8133 71.6309L22.7942 71.6364L22.7751 71.642L25.1667 79.8333ZM36.25 76.6533L40.1611 69.0691L37.1515 67.5171L33.8966 68.4509L36.25 76.6533ZM36.4333 73.2L36.47 64.6667L36.4493 64.6667L36.4285 64.6667L36.4333 73.2ZM35.975 73.265L38.3285 81.4674L38.3358 81.4653L38.343 81.4632L35.975 73.265ZM24.2417 76.6317L21.8881 68.4293L21.8204 68.4488L21.7529 68.4693L24.2417 76.6317ZM23.3683 75.7567L31.5259 78.261L31.5509 78.1794L31.5743 78.0974L23.3683 75.7567ZM26.72 64.0067L34.926 66.3474L34.9267 66.3449L26.72 64.0067ZM26.5783 62.7483L19.0858 66.8324L19.0914 66.8426L19.0969 66.8528L26.5783 62.7483ZM37.245 73.415L33.0526 80.8475L33.1065 80.8779L33.1609 80.9075L37.245 73.415ZM88.5333 50.0015C88.5344 44.1683 87.2111 38.411 84.6632 33.1636L69.3106 40.6182C70.73 43.5415 71.4672 46.7488 71.4667 49.9985L88.5333 50.0015ZM84.6632 33.1636C82.1153 27.9163 78.4093 23.3159 73.8247 19.7093L63.2726 33.1229C65.8266 35.1321 67.8912 37.6949 69.3106 40.6182L84.6632 33.1636ZM73.8247 19.7093C69.24 16.1027 63.8964 13.584 58.1967 12.3432L54.5663 29.0193C57.7416 29.7105 60.7185 31.1137 63.2726 33.1229L73.8247 19.7093ZM58.1967 12.3432C52.497 11.1024 46.5899 11.1718 40.9209 12.5462L44.9421 29.1323C48.1003 28.3667 51.3911 28.328 54.5663 29.0193L58.1967 12.3432ZM40.9209 12.5462C35.252 13.9206 29.969 16.5641 25.4704 20.2774L36.3347 33.4394C38.8409 31.3707 41.784 29.898 44.9421 29.1323L40.9209 12.5462ZM25.4704 20.2774C20.9717 23.9907 17.3749 28.6769 14.951 33.9827L30.4744 41.0745C31.8248 38.1187 33.8285 35.508 36.3347 33.4394L25.4704 20.2774ZM14.951 33.9827C12.5271 39.2885 11.3394 45.0753 11.4775 50.9069L28.5394 50.5028C28.4624 47.2541 29.1241 44.0303 30.4744 41.0745L14.951 33.9827ZM11.4775 50.9069C11.6156 56.7384 13.0758 62.4626 15.7481 67.6476L30.9185 59.829C29.4298 56.9404 28.6163 53.7516 28.5394 50.5028L11.4775 50.9069ZM15.1277 61.3963L11.961 72.4913L28.3723 77.1753L31.539 66.0803L15.1277 61.3963ZM11.9753 72.4418C11.3439 74.6046 11.3056 76.8974 11.8645 79.08L28.3977 74.8466C28.598 75.6286 28.5843 76.45 28.358 77.2249L11.9753 72.4418ZM11.8645 79.08C12.4233 81.2627 13.5588 83.2549 15.152 84.848L27.2199 72.7801C27.7907 73.3509 28.1975 74.0646 28.3977 74.8466L11.8645 79.08ZM15.152 84.848C16.7451 86.4412 18.7373 87.5767 20.92 88.1355L25.1534 71.6023C25.9354 71.8025 26.6491 72.2093 27.2199 72.7801L15.152 84.848ZM20.92 88.1355C23.1026 88.6944 25.3954 88.6561 27.5582 88.0247L22.7751 71.642C23.55 71.4158 24.3714 71.402 25.1534 71.6023L20.92 88.1355ZM27.5201 88.0357L38.6034 84.8557L33.8966 68.4509L22.8133 71.6309L27.5201 88.0357ZM32.3389 84.2376C38.2118 87.2662 44.7649 88.7337 51.3686 88.4989L50.7625 71.4431C47.0836 71.5738 43.4329 70.7563 40.1611 69.0691L32.3389 84.2376ZM51.3686 88.4989C57.9723 88.2643 64.4047 86.3353 70.0479 82.8974L61.1685 68.3225C58.0248 70.2377 54.4413 71.3123 50.7625 71.4431L51.3686 88.4989ZM70.0479 82.8974C75.691 79.4595 80.3552 74.6282 83.5924 68.8676L68.7141 60.5066C66.9107 63.7157 64.3123 66.4072 61.1685 68.3225L70.0479 82.8974ZM83.5924 68.8676C86.8297 63.107 88.5311 56.6107 88.5333 50.0029L71.4667 49.9971C71.4654 53.6783 70.5176 57.2974 68.7141 60.5066L83.5924 68.8676ZM36.4285 64.6667C35.4738 64.6672 34.524 64.8019 33.607 65.0668L38.343 81.4632C37.7239 81.642 37.0827 81.733 36.4381 81.7333L36.4285 64.6667ZM33.6215 65.0626L21.8881 68.4293L26.5952 84.834L38.3285 81.4674L33.6215 65.0626ZM21.7529 68.4693C23.1129 68.0546 24.56 68.018 25.939 68.3631L21.7961 84.9193C23.4216 85.326 25.1274 85.2828 26.7304 84.794L21.7529 68.4693ZM25.939 68.3631C27.3181 68.7081 28.5773 69.422 29.5818 70.4284L17.5023 82.4848C18.6863 83.671 20.1706 84.5125 21.7961 84.9193L25.939 68.3631ZM29.5818 70.4284C30.5861 71.4347 31.2977 72.6953 31.6402 74.0751L15.0761 78.1864C15.4798 79.8128 16.3185 81.2987 17.5023 82.4848L29.5818 70.4284ZM31.6402 74.0751C31.9826 75.4549 31.9431 76.9019 31.5259 78.261L15.2108 73.2523C14.719 74.8543 14.6724 76.5599 15.0761 78.1864L31.6402 74.0751ZM31.5743 78.0974L34.926 66.3474L18.514 61.6659L15.1623 73.4159L31.5743 78.0974ZM34.9267 66.3449C35.6621 63.7638 35.3506 60.9969 34.0597 58.6439L19.0969 66.8528C18.2279 65.2687 18.0182 63.406 18.5133 61.6684L34.9267 66.3449ZM34.0709 58.6642C31.9792 54.827 31.3406 50.3646 32.2719 46.0948L15.5972 42.4578C13.7913 50.7378 15.0298 59.3914 19.0858 66.8324L34.0709 58.6642ZM32.2719 46.0948C33.2032 41.8249 35.6421 38.0337 39.1416 35.416L28.9189 21.7497C22.1327 26.8259 17.4032 34.1778 15.5972 42.4578L32.2719 46.0948ZM39.1416 35.416C42.6411 32.7983 46.9668 31.5295 51.3258 31.8421L52.5465 14.8191C44.0935 14.213 35.7052 16.6735 28.9189 21.7497L39.1416 35.416ZM51.3258 31.8421C55.6848 32.1546 59.7852 34.0277 62.8754 37.1179L74.9434 25.0499C68.9509 19.0574 60.9995 15.4252 52.5465 14.8191L51.3258 31.8421ZM62.8754 37.1179C65.9657 40.2081 67.8387 44.3085 68.1513 48.6675L85.1742 47.4469C84.5681 38.9939 80.9359 31.0424 74.9434 25.0499L62.8754 37.1179ZM68.1513 48.6675C68.4638 53.0266 67.195 57.3522 64.5773 60.8517L78.2436 71.0744C83.3198 64.2882 85.7803 55.8999 85.1742 47.4469L68.1513 48.6675ZM64.5773 60.8517C61.9596 64.3512 58.1684 66.7902 53.8986 67.7215L57.5355 84.3961C65.8156 82.5901 73.1674 77.8606 78.2436 71.0744L64.5773 60.8517ZM53.8986 67.7215C49.6287 68.6528 45.1663 68.0141 41.3291 65.9225L33.1609 80.9075C40.6019 84.9636 49.2555 86.2021 57.5355 84.3961L53.8986 67.7215ZM41.4374 65.9825C39.9212 65.1273 38.2111 64.6742 36.47 64.6667L36.3966 81.7333C35.2245 81.7282 34.0733 81.4232 33.0526 80.8475L41.4374 65.9825Z" fill="#AF1315" mask="url(#path-1-inside-1_7_1998)"/>
<mask id="path-3-inside-2_7_1998" fill="white">
<path d="M95.92 41.76C93.9812 30.9904 88.3195 21.2447 79.9243 14.2259C71.5291 7.20711 60.9344 3.3617 49.9917 3.3617C39.049 3.3617 28.4543 7.20711 20.0591 14.2259C11.6639 21.2447 6.00215 30.9904 4.06333 41.76C2.92118 41.9778 1.89065 42.5869 1.14905 43.4824C0.407437 44.3779 0.0011199 45.5039 0 46.6667L0 60C0 61.3261 0.526784 62.5978 1.46447 63.5355C2.40215 64.4732 3.67392 65 5 65H13.3333C14.2174 65 15.0652 64.6488 15.6904 64.0237C16.3155 63.3986 16.6667 62.5507 16.6667 61.6667V45C16.6631 44.2857 16.4303 43.5915 16.0024 43.0196C15.5745 42.4477 14.9742 42.0283 14.29 41.8233C16.1305 33.7306 20.6659 26.5033 27.1525 21.3263C33.6392 16.1492 41.6923 13.3296 49.9917 13.3296C58.291 13.3296 66.3441 16.1492 72.8308 21.3263C79.3175 26.5033 83.8528 33.7306 85.6933 41.8233C85.0122 42.0313 84.4156 42.4519 83.9909 43.0235C83.5662 43.5952 83.3358 44.2878 83.3333 45V61.6667C83.3333 62.5507 83.6845 63.3986 84.3096 64.0237C84.9348 64.6488 85.7826 65 86.6667 65H89.915C89.4902 71.3219 86.6818 77.2469 82.0571 81.578C77.4324 85.9091 71.3361 88.3235 65 88.3333H61.43C61.0616 86.9064 60.2308 85.6418 59.0674 84.7372C57.904 83.8325 56.4737 83.3389 55 83.3333H45C43.2319 83.3333 41.5362 84.0357 40.286 85.2859C39.0357 86.5362 38.3333 88.2319 38.3333 90C38.3333 91.7681 39.0357 93.4638 40.286 94.714C41.5362 95.9643 43.2319 96.6667 45 96.6667H55C56.4737 96.6611 57.904 96.1675 59.0674 95.2628C60.2308 94.3582 61.0616 93.0936 61.43 91.6667H65C72.2189 91.6547 79.1613 88.8888 84.4107 83.9334C89.66 78.9779 92.8209 72.2063 93.2483 65H95C96.3261 65 97.5978 64.4732 98.5355 63.5355C99.4732 62.5978 100 61.3261 100 60V46.6667C99.9981 45.5016 99.5895 44.3737 98.8445 43.4778C98.0996 42.582 97.0652 41.9744 95.92 41.76ZM55 93.3333H45C44.1159 93.3333 43.2681 92.9821 42.643 92.357C42.0179 91.7319 41.6667 90.8841 41.6667 90C41.6667 89.1159 42.0179 88.2681 42.643 87.643C43.2681 87.0179 44.1159 86.6667 45 86.6667H55C55.8841 86.6667 56.7319 87.0179 57.357 87.643C57.9821 88.2681 58.3333 89.1159 58.3333 90C58.3333 90.8841 57.9821 91.7319 57.357 92.357C56.7319 92.9821 55.8841 93.3333 55 93.3333ZM5 61.6667C4.55797 61.6667 4.13405 61.4911 3.82149 61.1785C3.50893 60.866 3.33333 60.442 3.33333 60V46.6667C3.33333 46.2246 3.50893 45.8007 3.82149 45.4882C4.13405 45.1756 4.55797 45 5 45H13.3333V61.6667H5ZM50 10C40.8404 9.9909 31.9564 13.1331 24.8395 18.8993C17.7226 24.6654 12.806 32.7044 10.915 41.6667H7.50833C9.431 31.8108 14.7206 22.93 22.4711 16.5454C30.2216 10.1607 39.9509 6.66941 49.9925 6.66941C60.0341 6.66941 69.7634 10.1607 77.5139 16.5454C85.2644 22.93 90.554 31.8108 92.4767 41.6667H89.07C87.185 32.7041 82.2721 24.6637 75.157 18.8969C68.042 13.1301 59.1586 9.98843 50 10ZM96.6667 60C96.6667 60.442 96.4911 60.866 96.1785 61.1785C95.866 61.4911 95.442 61.6667 95 61.6667H86.6667V45H95C95.442 45 95.866 45.1756 96.1785 45.4882C96.4911 45.8007 96.6667 46.2246 96.6667 46.6667V60Z"/>
</mask>
<path d="M95.92 41.76C93.9812 30.9904 88.3195 21.2447 79.9243 14.2259C71.5291 7.20711 60.9344 3.3617 49.9917 3.3617C39.049 3.3617 28.4543 7.20711 20.0591 14.2259C11.6639 21.2447 6.00215 30.9904 4.06333 41.76C2.92118 41.9778 1.89065 42.5869 1.14905 43.4824C0.407437 44.3779 0.0011199 45.5039 0 46.6667L0 60C0 61.3261 0.526784 62.5978 1.46447 63.5355C2.40215 64.4732 3.67392 65 5 65H13.3333C14.2174 65 15.0652 64.6488 15.6904 64.0237C16.3155 63.3986 16.6667 62.5507 16.6667 61.6667V45C16.6631 44.2857 16.4303 43.5915 16.0024 43.0196C15.5745 42.4477 14.9742 42.0283 14.29 41.8233C16.1305 33.7306 20.6659 26.5033 27.1525 21.3263C33.6392 16.1492 41.6923 13.3296 49.9917 13.3296C58.291 13.3296 66.3441 16.1492 72.8308 21.3263C79.3175 26.5033 83.8528 33.7306 85.6933 41.8233C85.0122 42.0313 84.4156 42.4519 83.9909 43.0235C83.5662 43.5952 83.3358 44.2878 83.3333 45V61.6667C83.3333 62.5507 83.6845 63.3986 84.3096 64.0237C84.9348 64.6488 85.7826 65 86.6667 65H89.915C89.4902 71.3219 86.6818 77.2469 82.0571 81.578C77.4324 85.9091 71.3361 88.3235 65 88.3333H61.43C61.0616 86.9064 60.2308 85.6418 59.0674 84.7372C57.904 83.8325 56.4737 83.3389 55 83.3333H45C43.2319 83.3333 41.5362 84.0357 40.286 85.2859C39.0357 86.5362 38.3333 88.2319 38.3333 90C38.3333 91.7681 39.0357 93.4638 40.286 94.714C41.5362 95.9643 43.2319 96.6667 45 96.6667H55C56.4737 96.6611 57.904 96.1675 59.0674 95.2628C60.2308 94.3582 61.0616 93.0936 61.43 91.6667H65C72.2189 91.6547 79.1613 88.8888 84.4107 83.9334C89.66 78.9779 92.8209 72.2063 93.2483 65H95C96.3261 65 97.5978 64.4732 98.5355 63.5355C99.4732 62.5978 100 61.3261 100 60V46.6667C99.9981 45.5016 99.5895 44.3737 98.8445 43.4778C98.0996 42.582 97.0652 41.9744 95.92 41.76ZM55 93.3333H45C44.1159 93.3333 43.2681 92.9821 42.643 92.357C42.0179 91.7319 41.6667 90.8841 41.6667 90C41.6667 89.1159 42.0179 88.2681 42.643 87.643C43.2681 87.0179 44.1159 86.6667 45 86.6667H55C55.8841 86.6667 56.7319 87.0179 57.357 87.643C57.9821 88.2681 58.3333 89.1159 58.3333 90C58.3333 90.8841 57.9821 91.7319 57.357 92.357C56.7319 92.9821 55.8841 93.3333 55 93.3333ZM5 61.6667C4.55797 61.6667 4.13405 61.4911 3.82149 61.1785C3.50893 60.866 3.33333 60.442 3.33333 60V46.6667C3.33333 46.2246 3.50893 45.8007 3.82149 45.4882C4.13405 45.1756 4.55797 45 5 45H13.3333V61.6667H5ZM50 10C40.8404 9.9909 31.9564 13.1331 24.8395 18.8993C17.7226 24.6654 12.806 32.7044 10.915 41.6667H7.50833C9.431 31.8108 14.7206 22.93 22.4711 16.5454C30.2216 10.1607 39.9509 6.66941 49.9925 6.66941C60.0341 6.66941 69.7634 10.1607 77.5139 16.5454C85.2644 22.93 90.554 31.8108 92.4767 41.6667H89.07C87.185 32.7041 82.2721 24.6637 75.157 18.8969C68.042 13.1301 59.1586 9.98843 50 10ZM96.6667 60C96.6667 60.442 96.4911 60.866 96.1785 61.1785C95.866 61.4911 95.442 61.6667 95 61.6667H86.6667V45H95C95.442 45 95.866 45.1756 96.1785 45.4882C96.4911 45.8007 96.6667 46.2246 96.6667 46.6667V60Z" fill="#332E85"/>
<path d="M95.92 41.76L87.5217 43.2719L88.5645 49.0646L94.3499 50.1476L95.92 41.76ZM4.06333 41.76L5.66191 50.1423L11.4226 49.0436L12.4617 43.2719L4.06333 41.76ZM0 46.6667L-8.53333 46.6584V46.6667H0ZM0 60H-8.53333H0ZM16.6667 45H25.2V44.9789L25.1999 44.9579L16.6667 45ZM14.29 41.8233L5.96915 39.9309L4.20029 47.7086L11.841 49.9977L14.29 41.8233ZM49.9917 13.3296V4.79622V13.3296ZM85.6933 41.8233L88.185 49.9848L95.7738 47.6679L94.0142 39.9309L85.6933 41.8233ZM83.3333 45L74.8 44.9708L74.8 44.9854V45H83.3333ZM89.915 65L98.4291 65.5721L99.0409 56.4667H89.915V65ZM65 88.3333V96.8667L65.0132 96.8667L65 88.3333ZM61.43 88.3333L53.1676 90.4666L54.8201 96.8667H61.43V88.3333ZM55 83.3333L55.032 74.8001L55.016 74.8H55V83.3333ZM55 96.6667V105.2H55.016L55.032 105.2L55 96.6667ZM61.43 91.6667V83.1333H54.8201L53.1676 89.5334L61.43 91.6667ZM65 91.6667V100.2L65.0141 100.2L65 91.6667ZM93.2483 65V56.4667H85.2061L84.73 64.4947L93.2483 65ZM100 46.6667H108.533L108.533 46.6531L100 46.6667ZM3.33333 60H-5.2H3.33333ZM13.3333 45H21.8667V36.4667H13.3333V45ZM13.3333 61.6667V70.2H21.8667V61.6667H13.3333ZM50 10L49.9915 18.5333L50.0011 18.5333L50.0108 18.5333L50 10ZM10.915 41.6667V50.2H17.8357L19.2645 43.4284L10.915 41.6667ZM7.50833 41.6667L-0.867122 40.0328L-2.85053 50.2H7.50833V41.6667ZM92.4767 41.6667V50.2H102.836L100.852 40.0328L92.4767 41.6667ZM89.07 41.6667L80.7194 43.423L82.1447 50.2H89.07V41.6667ZM86.6667 61.6667H78.1333V70.2H86.6667V61.6667ZM86.6667 45V36.4667H78.1333V45H86.6667ZM104.318 40.2481C102.025 27.5092 95.328 15.9814 85.3976 7.67915L74.4509 20.7726C81.3109 26.508 85.9374 34.4717 87.5217 43.2719L104.318 40.2481ZM85.3976 7.67915C75.4673 -0.623069 62.9353 -5.17163 49.9917 -5.17163V11.895C58.9334 11.895 67.5908 15.0373 74.4509 20.7726L85.3976 7.67915ZM49.9917 -5.17163C37.048 -5.17163 24.516 -0.62307 14.5857 7.67915L25.5325 20.7726C32.3925 15.0373 41.0499 11.895 49.9917 11.895V-5.17163ZM14.5857 7.67915C4.65537 15.9814 -2.04164 27.5092 -4.33499 40.2481L12.4617 43.2719C14.0459 34.4717 18.6724 26.508 25.5325 20.7726L14.5857 7.67915ZM2.46476 33.3777C-0.626659 33.9673 -3.41596 35.6158 -5.42325 38.0397L7.72134 48.9251C7.19727 49.5579 6.46902 49.9883 5.66191 50.1423L2.46476 33.3777ZM-5.42325 38.0397C-7.43053 40.4636 -8.5303 43.5113 -8.53333 46.6584L8.53333 46.6749C8.53254 47.4965 8.24541 48.2922 7.72134 48.9251L-5.42325 38.0397ZM-8.53333 46.6667V60H8.53333V46.6667H-8.53333ZM-8.53333 60C-8.53333 63.5893 -7.10749 67.0315 -4.56951 69.5695L7.49844 57.5015C8.16106 58.1642 8.53333 59.0629 8.53333 60H-8.53333ZM-4.56951 69.5695C-2.03155 72.1075 1.4107 73.5333 5 73.5333V56.4667C5.93714 56.4667 6.83584 56.8389 7.49844 57.5015L-4.56951 69.5695ZM5 73.5333H13.3333V56.4667H5V73.5333ZM13.3333 73.5333C16.4806 73.5333 19.4989 72.2831 21.7243 70.0577L9.65638 57.9897C10.6316 57.0145 11.9542 56.4667 13.3333 56.4667V73.5333ZM21.7243 70.0577C23.9498 67.8322 25.2 64.8139 25.2 61.6667H8.13333C8.13333 60.2875 8.68119 58.9649 9.65638 57.9897L21.7243 70.0577ZM25.2 61.6667V45H8.13333V61.6667H25.2ZM25.1999 44.9579C25.1873 42.4151 24.3584 39.9436 22.8351 37.9076L9.16971 48.1315C8.5022 47.2394 8.13893 46.1563 8.13344 45.0421L25.1999 44.9579ZM22.8351 37.9076C21.3118 35.8716 19.1748 34.3787 16.739 33.649L11.841 49.9977C10.7737 49.6779 9.83721 49.0237 9.16971 48.1315L22.8351 37.9076ZM22.6109 43.7157C24.0224 37.5092 27.5007 31.9663 32.4756 27.9958L21.8295 14.6567C13.831 21.0404 8.23861 29.9521 5.96915 39.9309L22.6109 43.7157ZM32.4756 27.9958C37.4504 24.0254 43.6266 21.8629 49.9917 21.8629V4.79622C39.758 4.79622 29.828 8.27304 21.8295 14.6567L32.4756 27.9958ZM49.9917 21.8629C56.3567 21.8629 62.5329 24.0254 67.5078 27.9958L78.1538 14.6567C70.1553 8.27304 60.2253 4.79622 49.9917 4.79622V21.8629ZM67.5078 27.9958C72.4826 31.9663 75.9609 37.5092 77.3725 43.7157L94.0142 39.9309C91.7447 29.9521 86.1523 21.0404 78.1538 14.6567L67.5078 27.9958ZM83.2016 33.6619C80.7769 34.4022 78.6529 35.8996 77.141 37.9347L90.8408 48.1124C90.1783 49.0042 89.2476 49.6604 88.185 49.9848L83.2016 33.6619ZM77.141 37.9347C75.6291 39.9697 74.8087 42.4356 74.8 44.9708L91.8666 45.0292C91.8628 46.1401 91.5033 47.2207 90.8408 48.1124L77.141 37.9347ZM74.8 45V61.6667H91.8667V45H74.8ZM74.8 61.6667C74.8 64.8139 76.0502 67.8322 78.2757 70.0577L90.3436 57.9897C91.3188 58.9649 91.8667 60.2876 91.8667 61.6667H74.8ZM78.2757 70.0577C80.5011 72.2831 83.5195 73.5333 86.6667 73.5333V56.4667C88.0458 56.4667 89.3684 57.0145 90.3436 57.9897L78.2757 70.0577ZM86.6667 73.5333H89.915V56.4667H86.6667V73.5333ZM81.4009 64.4279C81.121 68.5928 79.2708 72.4962 76.224 75.3496L87.8901 87.8065C94.0928 81.9976 97.8594 74.051 98.4291 65.5721L81.4009 64.4279ZM76.224 75.3496C73.1773 78.2029 69.161 79.7935 64.9868 79.8L65.0132 96.8667C73.5112 96.8535 81.6875 93.6153 87.8901 87.8065L76.224 75.3496ZM65 79.8H61.43V96.8667H65V79.8ZM69.6924 86.2001C68.8524 82.9467 66.9581 80.0634 64.3056 78.0008L53.8292 91.4735C53.5034 91.2202 53.2708 90.8661 53.1676 90.4666L69.6924 86.2001ZM64.3056 78.0008C61.6532 75.9382 58.392 74.8127 55.032 74.8001L54.968 91.8666C54.5554 91.8651 54.1549 91.7268 53.8292 91.4735L64.3056 78.0008ZM55 74.8H45V91.8667H55V74.8ZM45 74.8C40.9687 74.8 37.1025 76.4014 34.252 79.252L46.3199 91.3199C45.9699 91.67 45.4951 91.8667 45 91.8667V74.8ZM34.252 79.252C31.4014 82.1025 29.8 85.9687 29.8 90H46.8667C46.8667 90.4951 46.67 90.9699 46.3199 91.3199L34.252 79.252ZM29.8 90C29.8 94.0313 31.4014 97.8975 34.252 100.748L46.3199 88.6801C46.67 89.0301 46.8667 89.5049 46.8667 90H29.8ZM34.252 100.748C37.1025 103.599 40.9687 105.2 45 105.2V88.1333C45.4951 88.1333 45.9699 88.33 46.3199 88.6801L34.252 100.748ZM45 105.2H55V88.1333H45V105.2ZM55.032 105.2C58.392 105.187 61.6532 104.062 64.3056 101.999L53.8292 88.5265C54.1549 88.2732 54.5554 88.1349 54.968 88.1334L55.032 105.2ZM64.3056 101.999C66.9581 99.9366 68.8524 97.0533 69.6924 93.7999L53.1676 89.5334C53.2708 89.1339 53.5034 88.7798 53.8292 88.5265L64.3056 101.999ZM61.43 100.2H65V83.1333H61.43V100.2ZM65.0141 100.2C74.4063 100.184 83.4387 96.5859 90.2684 90.1386L78.5529 77.7282C74.8838 81.1918 70.0315 83.125 64.9859 83.1333L65.0141 100.2ZM90.2684 90.1386C97.0981 83.6912 101.211 74.881 101.767 65.5053L84.73 64.4947C84.4312 69.5315 82.2219 74.2646 78.5529 77.7282L90.2684 90.1386ZM93.2483 73.5333H95V56.4667H93.2483V73.5333ZM95 73.5333C98.5893 73.5333 102.032 72.1075 104.57 69.5695L92.5015 57.5015C93.1641 56.8389 94.0629 56.4667 95 56.4667V73.5333ZM104.57 69.5695C107.107 67.0315 108.533 63.5893 108.533 60H91.4667C91.4667 59.0629 91.8389 58.1642 92.5015 57.5015L104.57 69.5695ZM108.533 60V46.6667H91.4667V60H108.533ZM108.533 46.6531C108.528 43.4995 107.422 40.4467 105.406 38.0219L92.2832 48.9337C91.7568 48.3006 91.468 47.5036 91.4667 46.6803L108.533 46.6531ZM105.406 38.0219C103.39 35.5971 100.59 33.9526 97.4901 33.3724L94.3499 50.1476C93.5406 49.9961 92.8096 49.5668 92.2832 48.9337L105.406 38.0219ZM55 84.8H45V101.867H55V84.8ZM45 84.8C46.3791 84.8 47.7018 85.3478 48.677 86.323L36.609 98.391C38.8344 100.616 41.8528 101.867 45 101.867V84.8ZM48.677 86.323C49.6521 87.2982 50.2 88.6209 50.2 90H33.1333C33.1333 93.1472 34.3836 96.1656 36.609 98.391L48.677 86.323ZM50.2 90C50.2 91.3791 49.6521 92.7018 48.677 93.6769L36.609 81.609C34.3836 83.8344 33.1333 86.8528 33.1333 90H50.2ZM48.677 93.6769C47.7018 94.6522 46.3791 95.2 45 95.2V78.1333C41.8528 78.1333 38.8344 79.3836 36.609 81.609L48.677 93.6769ZM45 95.2H55V78.1333H45V95.2ZM55 95.2C53.6209 95.2 52.2983 94.6522 51.323 93.6769L63.391 81.609C61.1656 79.3835 58.1472 78.1333 55 78.1333V95.2ZM51.323 93.6769C50.3478 92.7017 49.8 91.3791 49.8 90H66.8667C66.8667 86.8528 65.6164 83.8344 63.391 81.609L51.323 93.6769ZM49.8 90C49.8 88.6209 50.3478 87.2982 51.323 86.323L63.391 98.391C65.6164 96.1656 66.8667 93.1472 66.8667 90H49.8ZM51.323 86.323C52.2983 85.3478 53.6209 84.8 55 84.8V101.867C58.1472 101.867 61.1656 100.616 63.391 98.391L51.323 86.323ZM5 53.1333C6.82114 53.1333 8.56771 53.8568 9.85547 55.1445L-2.21249 67.2125C-0.299606 69.1254 2.29481 70.2 5 70.2V53.1333ZM9.85547 55.1445C11.1432 56.4323 11.8667 58.1789 11.8667 60H-5.2C-5.2 62.7052 -4.12537 65.2996 -2.21249 67.2125L9.85547 55.1445ZM11.8667 60V46.6667H-5.2V60H11.8667ZM11.8667 46.6667C11.8667 48.4878 11.1432 50.2344 9.85547 51.5221L-2.21249 39.4542C-4.12537 41.3671 -5.2 43.9615 -5.2 46.6667H11.8667ZM9.85547 51.5221C8.56771 52.8099 6.82114 53.5333 5 53.5333V36.4667C2.29481 36.4667 -0.299606 37.5413 -2.21249 39.4542L9.85547 51.5221ZM5 53.5333H13.3333V36.4667H5V53.5333ZM4.8 45V61.6667H21.8667V45H4.8ZM13.3333 53.1333H5V70.2H13.3333V53.1333ZM50.0085 1.46667C38.8902 1.45562 28.1065 5.26982 19.4677 12.269L30.2114 25.5296C35.8064 20.9965 42.7906 18.5262 49.9915 18.5333L50.0085 1.46667ZM19.4677 12.269C10.8289 19.2681 4.86085 29.0262 2.56549 39.905L19.2645 43.4284C20.7511 36.3826 24.6164 30.0627 30.2114 25.5296L19.4677 12.269ZM10.915 33.1333H7.50833V50.2H10.915V33.1333ZM15.8838 43.3005C17.4274 35.3877 21.6742 28.2577 27.8967 23.1317L17.0454 9.95903C7.76695 17.6024 1.43458 28.2339 -0.867122 40.0328L15.8838 43.3005ZM27.8967 23.1317C34.1193 18.0058 41.9305 15.2027 49.9925 15.2027V-1.86392C37.9712 -1.86392 26.3239 2.31567 17.0454 9.95903L27.8967 23.1317ZM49.9925 15.2027C58.0545 15.2027 65.8657 18.0058 72.0883 23.1317L82.9396 9.95903C73.6611 2.31567 62.0138 -1.86392 49.9925 -1.86392V15.2027ZM72.0883 23.1317C78.3108 28.2577 82.5576 35.3877 84.1012 43.3005L100.852 40.0328C98.5504 28.2339 92.218 17.6024 82.9396 9.95903L72.0883 23.1317ZM92.4767 33.1333H89.07V50.2H92.4767V33.1333ZM97.4206 39.9104C95.1322 29.0297 89.1679 19.2686 80.5302 12.2676L69.7839 25.5262C75.3763 30.0589 79.2378 36.3785 80.7194 43.423L97.4206 39.9104ZM80.5302 12.2676C71.8924 5.26664 61.1079 1.45263 49.9892 1.46667L50.0108 18.5333C57.2093 18.5242 64.1916 20.9935 69.7839 25.5262L80.5302 12.2676ZM88.1333 60C88.1333 58.1789 88.8568 56.4323 90.1445 55.1445L102.212 67.2125C104.125 65.2996 105.2 62.7052 105.2 60H88.1333ZM90.1445 55.1445C91.4323 53.8568 93.1789 53.1333 95 53.1333V70.2C97.7052 70.2 100.3 69.1254 102.212 67.2125L90.1445 55.1445ZM95 53.1333H86.6667V70.2H95V53.1333ZM95.2 61.6667V45H78.1333V61.6667H95.2ZM86.6667 53.5333H95V36.4667H86.6667V53.5333ZM95 53.5333C93.1789 53.5333 91.4323 52.8099 90.1445 51.5221L102.212 39.4542C100.3 37.5413 97.7052 36.4667 95 36.4667V53.5333ZM90.1445 51.5221C88.8568 50.2344 88.1333 48.4878 88.1333 46.6667H105.2C105.2 43.9615 104.125 41.3671 102.212 39.4542L90.1445 51.5221ZM88.1333 46.6667V60H105.2V46.6667H88.1333Z" fill="#AF1315" mask="url(#path-3-inside-2_7_1998)"/>
<path d="M64.9987 49.9999L66.1748 48.8238L64.9987 49.9999Z" fill="#332E85" stroke="#AF1315" stroke-width="8.53333"/>
<path d="M64.9987 39.9999L66.1748 38.8238L64.9987 39.9999Z" fill="#332E85" stroke="#AF1315" stroke-width="8.53333"/>
<path d="M54.9987 61.6666H54.9987L56.6654 59.9999L54.9987 61.6666Z" fill="#332E85" stroke="#AF1315" stroke-width="8.53333"/>
</g>
<defs>
<clipPath id="clip0_7_1998">
<rect width="100" height="100" fill="white"/>
</clipPath>
</defs>
</svg>
