<svg width="100" height="100" viewBox="0 0 100 100" fill="none" xmlns="http://www.w3.org/2000/svg">
<g clip-path="url(#clip0_7_1989)">
<path d="M61.1663 31.6667C61.1663 37.8222 56.1568 42.8333 49.9997 42.8333C43.8425 42.8333 38.833 37.8222 38.833 31.6667C38.833 25.5111 43.8425 20.5 49.9997 20.5C56.1568 20.5 61.1663 25.5111 61.1663 31.6667ZM58.833 31.6667C58.833 26.7955 54.8708 22.8333 49.9997 22.8333C45.1285 22.8333 41.1663 26.7955 41.1663 31.6667C41.1663 36.5378 45.1285 40.5 49.9997 40.5C54.8708 40.5 58.833 36.5378 58.833 31.6667Z" fill="#332E85" stroke="#AF1315"/>
<path d="M74.8732 54.0333L74.8676 54.0409L74.8621 54.0487L49.7049 90.3833L24.5093 53.997L24.5039 53.9892L24.4982 53.9817C19.8066 47.7264 17.7865 39.4131 18.3292 31.268C18.8719 23.1228 21.974 15.1989 27.4584 9.71525L27.4584 9.71522C33.4014 3.77231 41.3008 0.5 49.7049 0.5C58.1089 0.5 66.0084 3.7723 71.9513 9.71684L71.9514 9.71691C77.4358 15.2005 80.5378 23.1243 81.0758 31.2756C81.6137 39.4266 79.5843 47.7527 74.8732 54.0333ZM29.1081 11.3647L29.108 11.3648C23.9656 16.5072 21.0969 23.8951 20.6028 31.4413C20.109 38.9846 21.9844 46.7382 26.3975 52.6258L49.2938 85.6897L49.7049 86.2833L50.116 85.6896L72.9756 52.6758C77.4067 46.7636 79.292 38.9977 78.803 31.4479C78.3138 23.8953 75.445 16.5072 70.3018 11.3648L70.3017 11.3647C64.7997 5.86438 57.4842 2.83333 49.7049 2.83333C41.9256 2.83333 34.6101 5.86438 29.1081 11.3647Z" fill="#332E85" stroke="#AF1315"/>
<path d="M70.1345 72.1747L70.1365 72.1749C78.8766 73.2042 86.2705 75.1657 91.4636 77.6319C94.0612 78.8655 96.0851 80.2146 97.4527 81.6169C98.8198 83.0187 99.5 84.4394 99.5 85.8333C99.5 87.3746 98.5598 89.0108 96.4958 90.6228C94.4372 92.2305 91.3262 93.7589 87.1583 95.08C78.8273 97.7208 66.3828 99.5 50 99.5C33.6172 99.5 21.1727 97.7208 12.8417 95.08C8.6738 93.7589 5.56276 92.2305 3.50425 90.6228C1.44019 89.0108 0.5 87.3746 0.5 85.8333C0.5 84.4394 1.18015 83.0187 2.54726 81.6169C3.91485 80.2146 5.93875 78.8655 8.53637 77.6319C13.7295 75.1657 21.1234 73.2042 29.8635 72.1749L29.8635 72.1749L29.8673 72.1744C30.5014 72.0947 31.0821 72.5522 31.1585 73.1971C31.2328 73.8372 30.7745 74.4173 30.137 74.4917L30.1365 74.4918C21.3355 75.5279 14.5676 77.4442 9.98527 79.521C7.69609 80.5585 5.93451 81.6441 4.73632 82.6937C3.56177 83.7226 2.83333 84.8017 2.83333 85.8333C2.83333 86.5674 3.19266 87.2747 3.78009 87.931C4.36963 88.5896 5.22434 89.238 6.30816 89.8668C8.47747 91.1253 11.647 92.352 15.6956 93.4294C23.7992 95.586 35.5106 97.1667 50 97.1667C64.4894 97.1667 76.2008 95.586 84.3044 93.4294C88.353 92.352 91.5225 91.1253 93.6918 89.8668C94.7757 89.238 95.6304 88.5896 96.2199 87.931C96.8073 87.2747 97.1667 86.5674 97.1667 85.8333C97.1667 84.8017 96.4382 83.7226 95.2637 82.6937C94.0655 81.6441 92.3039 80.5585 90.0147 79.521C85.4324 77.4442 78.6645 75.5279 69.8635 74.4918L69.863 74.4917C69.225 74.4172 68.7668 73.8381 68.8416 73.1962C68.9165 72.5543 69.4952 72.0968 70.1345 72.1747Z" fill="#332E85" stroke="#AF1315"/>
</g>
<defs>
<clipPath id="clip0_7_1989">
<rect width="100" height="100" fill="white"/>
</clipPath>
</defs>
</svg>
