<svg width="100" height="100" viewBox="0 0 100 100" fill="none" xmlns="http://www.w3.org/2000/svg">
<mask id="path-1-inside-1_7_1981" fill="white">
<path d="M93.75 71.2812V26.5625C93.75 22.2547 90.2453 18.75 85.9375 18.75H78.125V10.9375C78.125 6.62969 74.6203 3.125 70.3125 3.125H51.5625C47.2547 3.125 43.75 6.62969 43.75 10.9375V18.75H35.9375C31.6297 18.75 28.125 22.2547 28.125 26.5625V74.3531L27.4781 75H18.75V73.4375C18.75 72.5734 18.05 71.875 17.1875 71.875H4.6875C3.825 71.875 3.125 72.5734 3.125 73.4375V95.3125C3.125 96.1766 3.825 96.875 4.6875 96.875H17.1875C18.05 96.875 18.75 96.1766 18.75 95.3125H70.3125C70.5813 95.3125 70.8453 95.2437 71.0781 95.1109L93.5656 82.4625C95.6062 81.3141 96.875 79.1469 96.875 76.8047C96.875 74.4625 95.6156 72.4234 93.75 71.2812ZM15.625 93.75H6.25V75H15.625V93.75ZM46.875 10.9375C46.875 8.35313 48.9781 6.25 51.5625 6.25H70.3125C72.8969 6.25 75 8.35313 75 10.9375V18.75H71.875V10.9375C71.875 10.0734 71.175 9.375 70.3125 9.375H51.5625C50.7 9.375 50 10.0734 50 10.9375V18.75H46.875V10.9375ZM53.125 18.75V12.5H68.75V18.75H53.125ZM31.25 26.5625C31.25 23.9781 33.3531 21.875 35.9375 21.875H85.9375C88.5219 21.875 90.625 23.9781 90.625 26.5625V70.3375C90.5422 70.3344 90.4656 70.3125 90.3828 70.3125H90.1453C89.2109 70.3125 88.2703 70.5188 87.425 70.9094L68.4062 79.6875H61.3094C62.0594 78.5687 62.5 77.2266 62.5 75.7812C62.5 71.9047 59.3453 68.75 55.4688 68.75H34.375C33.9609 68.75 33.5625 68.9141 33.2703 69.2078L31.25 71.2281V26.5625ZM92.0328 79.7391L69.9031 92.1875H18.75V78.125H28.125C28.5391 78.125 28.9375 77.9609 29.2297 77.6672L35.0219 71.875H55.4688C57.6219 71.875 59.375 73.6266 59.375 75.7812C59.375 77.9359 57.6219 79.6875 55.4688 79.6875H42.1875V82.8125H55.4688H68.75C68.9766 82.8125 69.2 82.7641 69.4047 82.6688L88.7359 73.7453C89.1719 73.5437 89.6594 73.4375 90.1453 73.4375H90.3828C92.2391 73.4375 93.75 74.9484 93.75 76.8047C93.75 78.0203 93.0922 79.1422 92.0328 79.7391Z"/>
</mask>
<path d="M93.75 71.2812V26.5625C93.75 22.2547 90.2453 18.75 85.9375 18.75H78.125V10.9375C78.125 6.62969 74.6203 3.125 70.3125 3.125H51.5625C47.2547 3.125 43.75 6.62969 43.75 10.9375V18.75H35.9375C31.6297 18.75 28.125 22.2547 28.125 26.5625V74.3531L27.4781 75H18.75V73.4375C18.75 72.5734 18.05 71.875 17.1875 71.875H4.6875C3.825 71.875 3.125 72.5734 3.125 73.4375V95.3125C3.125 96.1766 3.825 96.875 4.6875 96.875H17.1875C18.05 96.875 18.75 96.1766 18.75 95.3125H70.3125C70.5813 95.3125 70.8453 95.2437 71.0781 95.1109L93.5656 82.4625C95.6062 81.3141 96.875 79.1469 96.875 76.8047C96.875 74.4625 95.6156 72.4234 93.75 71.2812ZM15.625 93.75H6.25V75H15.625V93.75ZM46.875 10.9375C46.875 8.35313 48.9781 6.25 51.5625 6.25H70.3125C72.8969 6.25 75 8.35313 75 10.9375V18.75H71.875V10.9375C71.875 10.0734 71.175 9.375 70.3125 9.375H51.5625C50.7 9.375 50 10.0734 50 10.9375V18.75H46.875V10.9375ZM53.125 18.75V12.5H68.75V18.75H53.125ZM31.25 26.5625C31.25 23.9781 33.3531 21.875 35.9375 21.875H85.9375C88.5219 21.875 90.625 23.9781 90.625 26.5625V70.3375C90.5422 70.3344 90.4656 70.3125 90.3828 70.3125H90.1453C89.2109 70.3125 88.2703 70.5188 87.425 70.9094L68.4062 79.6875H61.3094C62.0594 78.5687 62.5 77.2266 62.5 75.7812C62.5 71.9047 59.3453 68.75 55.4688 68.75H34.375C33.9609 68.75 33.5625 68.9141 33.2703 69.2078L31.25 71.2281V26.5625ZM92.0328 79.7391L69.9031 92.1875H18.75V78.125H28.125C28.5391 78.125 28.9375 77.9609 29.2297 77.6672L35.0219 71.875H55.4688C57.6219 71.875 59.375 73.6266 59.375 75.7812C59.375 77.9359 57.6219 79.6875 55.4688 79.6875H42.1875V82.8125H55.4688H68.75C68.9766 82.8125 69.2 82.7641 69.4047 82.6688L88.7359 73.7453C89.1719 73.5437 89.6594 73.4375 90.1453 73.4375H90.3828C92.2391 73.4375 93.75 74.9484 93.75 76.8047C93.75 78.0203 93.0922 79.1422 92.0328 79.7391Z" fill="#332E85"/>
<path d="M93.75 71.2812H85.75V75.7637L89.5729 78.1041L93.75 71.2812ZM78.125 18.75H70.125V26.75H78.125V18.75ZM43.75 18.75V26.75H51.75V18.75H43.75ZM28.125 74.3531L33.7819 80.01L36.125 77.6668V74.3531H28.125ZM27.4781 75V83H30.7918L33.135 80.6568L27.4781 75ZM18.75 75H10.75V83H18.75V75ZM18.75 95.3125V87.3125H10.75V95.3125H18.75ZM71.0781 95.1109L67.1562 88.1382L67.1351 88.1501L67.114 88.1621L71.0781 95.1109ZM93.5656 82.4625L97.4875 89.4352L97.4892 89.4342L93.5656 82.4625ZM15.625 93.75V101.75H23.625V93.75H15.625ZM6.25 93.75H-1.75V101.75H6.25V93.75ZM6.25 75V67H-1.75V75H6.25ZM15.625 75H23.625V67H15.625V75ZM75 18.75V26.75H83V18.75H75ZM71.875 18.75H63.875V26.75H71.875V18.75ZM50 18.75V26.75H58V18.75H50ZM46.875 18.75H38.875V26.75H46.875V18.75ZM53.125 18.75H45.125V26.75H53.125V18.75ZM53.125 12.5V4.5H45.125V12.5H53.125ZM68.75 12.5H76.75V4.5H68.75V12.5ZM68.75 18.75V26.75H76.75V18.75H68.75ZM90.625 70.3375L90.3233 78.3318L98.625 78.6451V70.3375H90.625ZM87.425 70.9094L90.7775 78.173L90.7809 78.1715L87.425 70.9094ZM68.4062 79.6875V87.6875H70.1634L71.7588 86.9511L68.4062 79.6875ZM61.3094 79.6875L54.6644 75.2328L46.3149 87.6875H61.3094V79.6875ZM33.2703 69.2078L38.9272 74.8647L38.9347 74.8571L38.9422 74.8496L33.2703 69.2078ZM31.25 71.2281H23.25V90.5418L36.9069 76.885L31.25 71.2281ZM92.0328 79.7391L95.955 86.7116L95.9598 86.7089L92.0328 79.7391ZM69.9031 92.1875V100.188H71.9988L73.8253 99.16L69.9031 92.1875ZM18.75 92.1875H10.75V100.188H18.75V92.1875ZM18.75 78.125V70.125H10.75V78.125H18.75ZM29.2297 77.6672L23.5728 72.0103L23.5653 72.0179L23.5578 72.0254L29.2297 77.6672ZM35.0219 71.875V63.875H31.7082L29.365 66.2181L35.0219 71.875ZM42.1875 79.6875V71.6875H34.1875V79.6875H42.1875ZM42.1875 82.8125H34.1875V90.8125H42.1875V82.8125ZM69.4047 82.6688L66.0518 75.4053L66.0397 75.4108L66.0277 75.4165L69.4047 82.6688ZM88.7359 73.7453L92.0888 81.0088L92.0934 81.0067L88.7359 73.7453ZM101.75 71.2812V26.5625H85.75V71.2812H101.75ZM101.75 26.5625C101.75 17.8364 94.6636 10.75 85.9375 10.75V26.75C85.9208 26.75 85.8877 26.745 85.8546 26.731C85.827 26.7193 85.8112 26.7066 85.8023 26.6977C85.7934 26.6888 85.7807 26.673 85.769 26.6454C85.755 26.6123 85.75 26.5792 85.75 26.5625H101.75ZM85.9375 10.75H78.125V26.75H85.9375V10.75ZM86.125 18.75V10.9375H70.125V18.75H86.125ZM86.125 10.9375C86.125 2.21141 79.0386 -4.875 70.3125 -4.875V11.125C70.2958 11.125 70.2627 11.12 70.2296 11.106C70.202 11.0943 70.1862 11.0816 70.1773 11.0727C70.1684 11.0638 70.1557 11.048 70.144 11.0204C70.13 10.9873 70.125 10.9542 70.125 10.9375H86.125ZM70.3125 -4.875H51.5625V11.125H70.3125V-4.875ZM51.5625 -4.875C42.8364 -4.875 35.75 2.21141 35.75 10.9375H51.75C51.75 10.9542 51.745 10.9873 51.731 11.0204C51.7193 11.048 51.7066 11.0638 51.6977 11.0727C51.6888 11.0816 51.673 11.0943 51.6454 11.106C51.6123 11.12 51.5792 11.125 51.5625 11.125V-4.875ZM35.75 10.9375V18.75H51.75V10.9375H35.75ZM43.75 10.75H35.9375V26.75H43.75V10.75ZM35.9375 10.75C27.2114 10.75 20.125 17.8364 20.125 26.5625H36.125C36.125 26.5792 36.12 26.6123 36.106 26.6454C36.0943 26.673 36.0816 26.6888 36.0727 26.6977C36.0638 26.7066 36.048 26.7193 36.0204 26.731C35.9873 26.745 35.9542 26.75 35.9375 26.75V10.75ZM20.125 26.5625V74.3531H36.125V26.5625H20.125ZM22.4681 68.6963L21.8213 69.3432L33.135 80.6568L33.7819 80.01L22.4681 68.6963ZM27.4781 67H18.75V83H27.4781V67ZM26.75 75V73.4375H10.75V75H26.75ZM26.75 73.4375C26.75 68.1499 22.4631 63.875 17.1875 63.875V79.875C13.6369 79.875 10.75 76.9969 10.75 73.4375H26.75ZM17.1875 63.875H4.6875V79.875H17.1875V63.875ZM4.6875 63.875C-0.588066 63.875 -4.875 68.1499 -4.875 73.4375H11.125C11.125 76.9969 8.23807 79.875 4.6875 79.875V63.875ZM-4.875 73.4375V95.3125H11.125V73.4375H-4.875ZM-4.875 95.3125C-4.875 100.6 -0.588066 104.875 4.6875 104.875V88.875C8.23807 88.875 11.125 91.7531 11.125 95.3125H-4.875ZM4.6875 104.875H17.1875V88.875H4.6875V104.875ZM17.1875 104.875C22.4631 104.875 26.75 100.6 26.75 95.3125H10.75C10.75 91.7531 13.6369 88.875 17.1875 88.875V104.875ZM18.75 103.312H70.3125V87.3125H18.75V103.312ZM70.3125 103.312C71.944 103.312 73.5781 102.895 75.0422 102.06L67.114 88.1621C68.1125 87.5925 69.2185 87.3125 70.3125 87.3125V103.312ZM75 102.084L97.4875 89.4352L89.6437 75.4898L67.1562 88.1382L75 102.084ZM97.4892 89.4342C102.045 86.8703 104.875 82.0398 104.875 76.8047H88.875C88.875 76.254 89.1674 75.7579 89.642 75.4908L97.4892 89.4342ZM104.875 76.8047C104.875 71.5007 102.013 66.9596 97.9271 64.4584L89.5729 78.1041C89.2187 77.8873 88.875 77.4243 88.875 76.8047H104.875ZM15.625 85.75H6.25V101.75H15.625V85.75ZM14.25 93.75V75H-1.75V93.75H14.25ZM6.25 83H15.625V67H6.25V83ZM7.625 75V93.75H23.625V75H7.625ZM54.875 10.9375C54.875 12.7714 53.3964 14.25 51.5625 14.25V-1.75C44.5598 -1.75 38.875 3.93485 38.875 10.9375H54.875ZM51.5625 14.25H70.3125V-1.75H51.5625V14.25ZM70.3125 14.25C68.4786 14.25 67 12.7714 67 10.9375H83C83 3.93485 77.3152 -1.75 70.3125 -1.75V14.25ZM67 10.9375V18.75H83V10.9375H67ZM75 10.75H71.875V26.75H75V10.75ZM79.875 18.75V10.9375H63.875V18.75H79.875ZM79.875 10.9375C79.875 5.64995 75.5881 1.375 70.3125 1.375V17.375C66.7619 17.375 63.875 14.4969 63.875 10.9375H79.875ZM70.3125 1.375H51.5625V17.375H70.3125V1.375ZM51.5625 1.375C46.2869 1.375 42 5.64995 42 10.9375H58C58 14.4969 55.1131 17.375 51.5625 17.375V1.375ZM42 10.9375V18.75H58V10.9375H42ZM50 10.75H46.875V26.75H50V10.75ZM54.875 18.75V10.9375H38.875V18.75H54.875ZM61.125 18.75V12.5H45.125V18.75H61.125ZM53.125 20.5H68.75V4.5H53.125V20.5ZM60.75 12.5V18.75H76.75V12.5H60.75ZM68.75 10.75H53.125V26.75H68.75V10.75ZM39.25 26.5625C39.25 28.3964 37.7714 29.875 35.9375 29.875V13.875C28.9348 13.875 23.25 19.5598 23.25 26.5625H39.25ZM35.9375 29.875H85.9375V13.875H35.9375V29.875ZM85.9375 29.875C84.1036 29.875 82.625 28.3964 82.625 26.5625H98.625C98.625 19.5598 92.9402 13.875 85.9375 13.875V29.875ZM82.625 26.5625V70.3375H98.625V26.5625H82.625ZM90.9267 62.3432C91.2063 62.3537 91.4266 62.378 91.5466 62.3929C91.6072 62.4004 91.653 62.4069 91.6712 62.4095C91.6785 62.4105 91.7034 62.4142 91.6678 62.4089C91.6385 62.4046 91.4751 62.3801 91.2743 62.3592C91.0612 62.3369 90.7533 62.3125 90.3828 62.3125V78.3125C90.2172 78.3125 90.0683 78.307 89.9397 78.2994C89.8114 78.2918 89.701 78.2819 89.6136 78.2728C89.5268 78.2637 89.457 78.2548 89.4126 78.2489C89.3901 78.2458 89.372 78.2433 89.3602 78.2416C89.3487 78.24 89.3408 78.2388 89.34 78.2387C89.3396 78.2386 89.3398 78.2387 89.342 78.239C89.3435 78.2392 89.3479 78.2399 89.3521 78.2405C89.3608 78.2418 89.377 78.2442 89.3964 78.2469C89.4346 78.2524 89.5004 78.2617 89.5811 78.2717C89.663 78.2818 89.7687 78.2938 89.8919 78.3046C90.0157 78.3155 90.1608 78.3257 90.3233 78.3318L90.9267 62.3432ZM90.3828 62.3125H90.1453V78.3125H90.3828V62.3125ZM90.1453 62.3125C88.0574 62.3125 85.9712 62.7683 84.0691 63.6473L90.7809 78.1715C90.5694 78.2692 90.3645 78.3125 90.1453 78.3125V62.3125ZM84.0725 63.6457L65.0537 72.4239L71.7588 86.9511L90.7775 78.173L84.0725 63.6457ZM68.4062 71.6875H61.3094V87.6875H68.4062V71.6875ZM67.9543 84.1422C69.5498 81.7624 70.5 78.8798 70.5 75.7812H54.5C54.5 75.5733 54.569 75.3751 54.6644 75.2328L67.9543 84.1422ZM70.5 75.7812C70.5 67.4864 63.7636 60.75 55.4688 60.75V76.75C54.927 76.75 54.5 76.323 54.5 75.7812H70.5ZM55.4688 60.75H34.375V76.75H55.4688V60.75ZM34.375 60.75C31.8521 60.75 29.4063 61.7484 27.5984 63.5661L38.9422 74.8496C37.7187 76.0797 36.0697 76.75 34.375 76.75V60.75ZM27.6135 63.551L25.5931 65.5713L36.9069 76.885L38.9272 74.8647L27.6135 63.551ZM39.25 71.2281V26.5625H23.25V71.2281H39.25ZM88.1106 72.7665L65.9809 85.215L73.8253 99.16L95.955 86.7116L88.1106 72.7665ZM69.9031 84.1875H18.75V100.188H69.9031V84.1875ZM26.75 92.1875V78.125H10.75V92.1875H26.75ZM18.75 86.125H28.125V70.125H18.75V86.125ZM28.125 86.125C30.6479 86.125 33.0937 85.1266 34.9016 83.3089L23.5578 72.0254C24.7814 70.7953 26.4303 70.125 28.125 70.125V86.125ZM34.8865 83.324L40.6787 77.5319L29.365 66.2181L23.5728 72.0103L34.8865 83.324ZM35.0219 79.875H55.4688V63.875H35.0219V79.875ZM55.4688 79.875C53.2057 79.875 51.375 78.0469 51.375 75.7812H67.375C67.375 69.2062 62.0381 63.875 55.4688 63.875V79.875ZM51.375 75.7812C51.375 73.5156 53.2057 71.6875 55.4688 71.6875V87.6875C62.0381 87.6875 67.375 82.3563 67.375 75.7812H51.375ZM55.4688 71.6875H42.1875V87.6875H55.4688V71.6875ZM34.1875 79.6875V82.8125H50.1875V79.6875H34.1875ZM42.1875 90.8125H55.4688V74.8125H42.1875V90.8125ZM55.4688 90.8125H68.75V74.8125H55.4688V90.8125ZM68.75 90.8125C70.1166 90.8125 71.4954 90.52 72.7817 89.921L66.0277 75.4165C66.9046 75.0081 67.8366 74.8125 68.75 74.8125V90.8125ZM72.7576 89.9322L92.0888 81.0088L85.3831 66.4818L66.0518 75.4053L72.7576 89.9322ZM92.0934 81.0067C91.4608 81.2992 90.8009 81.4375 90.1453 81.4375V65.4375C88.5178 65.4375 86.883 65.7883 85.3785 66.4839L92.0934 81.0067ZM90.1453 81.4375H90.3828V65.4375H90.1453V81.4375ZM90.3828 81.4375C87.8208 81.4375 85.75 79.3667 85.75 76.8047H101.75C101.75 70.5302 96.6573 65.4375 90.3828 65.4375V81.4375ZM85.75 76.8047C85.75 75.1217 86.6581 73.5849 88.1058 72.7692L95.9598 86.7089C99.5263 84.6995 101.75 80.9189 101.75 76.8047H85.75Z" fill="#AF1315" mask="url(#path-1-inside-1_7_1981)"/>
<mask id="path-3-inside-2_7_1981" fill="white">
<path d="M60.9375 65.625C71.2766 65.625 79.6875 57.2141 79.6875 46.875C79.6875 36.5359 71.2766 28.125 60.9375 28.125C50.5984 28.125 42.1875 36.5359 42.1875 46.875C42.1875 57.2141 50.5984 65.625 60.9375 65.625ZM60.9375 31.25C69.5531 31.25 76.5625 38.2594 76.5625 46.875C76.5625 55.4906 69.5531 62.5 60.9375 62.5C52.3219 62.5 45.3125 55.4906 45.3125 46.875C45.3125 38.2594 52.3219 31.25 60.9375 31.25Z"/>
</mask>
<path d="M60.9375 65.625C71.2766 65.625 79.6875 57.2141 79.6875 46.875C79.6875 36.5359 71.2766 28.125 60.9375 28.125C50.5984 28.125 42.1875 36.5359 42.1875 46.875C42.1875 57.2141 50.5984 65.625 60.9375 65.625ZM60.9375 31.25C69.5531 31.25 76.5625 38.2594 76.5625 46.875C76.5625 55.4906 69.5531 62.5 60.9375 62.5C52.3219 62.5 45.3125 55.4906 45.3125 46.875C45.3125 38.2594 52.3219 31.25 60.9375 31.25Z" fill="#332E85"/>
<path d="M60.9375 73.625C75.6948 73.625 87.6875 61.6323 87.6875 46.875H71.6875C71.6875 52.7958 66.8583 57.625 60.9375 57.625V73.625ZM87.6875 46.875C87.6875 32.1177 75.6948 20.125 60.9375 20.125V36.125C66.8583 36.125 71.6875 40.9542 71.6875 46.875H87.6875ZM60.9375 20.125C46.1802 20.125 34.1875 32.1177 34.1875 46.875H50.1875C50.1875 40.9542 55.0167 36.125 60.9375 36.125V20.125ZM34.1875 46.875C34.1875 61.6323 46.1802 73.625 60.9375 73.625V57.625C55.0167 57.625 50.1875 52.7958 50.1875 46.875H34.1875ZM60.9375 39.25C65.1348 39.25 68.5625 42.6777 68.5625 46.875H84.5625C84.5625 33.8411 73.9714 23.25 60.9375 23.25V39.25ZM68.5625 46.875C68.5625 51.0723 65.1348 54.5 60.9375 54.5V70.5C73.9714 70.5 84.5625 59.9089 84.5625 46.875H68.5625ZM60.9375 54.5C56.7402 54.5 53.3125 51.0723 53.3125 46.875H37.3125C37.3125 59.9089 47.9036 70.5 60.9375 70.5V54.5ZM53.3125 46.875C53.3125 42.6777 56.7402 39.25 60.9375 39.25V23.25C47.9036 23.25 37.3125 33.8411 37.3125 46.875H53.3125Z" fill="#AF1315" mask="url(#path-3-inside-2_7_1981)"/>
<mask id="path-5-inside-3_7_1981" fill="white">
<path d="M51.5625 51.5625H56.25V56.25C56.25 57.1141 56.95 57.8125 57.8125 57.8125H64.0625C64.925 57.8125 65.625 57.1141 65.625 56.25V51.5625H70.3125C71.175 51.5625 71.875 50.8641 71.875 50V43.75C71.875 42.8859 71.175 42.1875 70.3125 42.1875H65.625V37.5C65.625 36.6359 64.925 35.9375 64.0625 35.9375H57.8125C56.95 35.9375 56.25 36.6359 56.25 37.5V42.1875H51.5625C50.7 42.1875 50 42.8859 50 43.75V50C50 50.8641 50.7 51.5625 51.5625 51.5625ZM53.125 45.3125H57.8125C58.675 45.3125 59.375 44.6141 59.375 43.75V39.0625H62.5V43.75C62.5 44.6141 63.2 45.3125 64.0625 45.3125H68.75V48.4375H64.0625C63.2 48.4375 62.5 49.1359 62.5 50V54.6875H59.375V50C59.375 49.1359 58.675 48.4375 57.8125 48.4375H53.125V45.3125Z"/>
</mask>
<path d="M51.5625 51.5625H56.25V56.25C56.25 57.1141 56.95 57.8125 57.8125 57.8125H64.0625C64.925 57.8125 65.625 57.1141 65.625 56.25V51.5625H70.3125C71.175 51.5625 71.875 50.8641 71.875 50V43.75C71.875 42.8859 71.175 42.1875 70.3125 42.1875H65.625V37.5C65.625 36.6359 64.925 35.9375 64.0625 35.9375H57.8125C56.95 35.9375 56.25 36.6359 56.25 37.5V42.1875H51.5625C50.7 42.1875 50 42.8859 50 43.75V50C50 50.8641 50.7 51.5625 51.5625 51.5625ZM53.125 45.3125H57.8125C58.675 45.3125 59.375 44.6141 59.375 43.75V39.0625H62.5V43.75C62.5 44.6141 63.2 45.3125 64.0625 45.3125H68.75V48.4375H64.0625C63.2 48.4375 62.5 49.1359 62.5 50V54.6875H59.375V50C59.375 49.1359 58.675 48.4375 57.8125 48.4375H53.125V45.3125Z" fill="#332E85"/>
<path d="M56.25 51.5625H64.25V43.5625H56.25V51.5625ZM65.625 51.5625V43.5625H57.625V51.5625H65.625ZM65.625 42.1875H57.625V50.1875H65.625V42.1875ZM56.25 42.1875V50.1875H64.25V42.1875H56.25ZM53.125 45.3125V37.3125H45.125V45.3125H53.125ZM59.375 39.0625V31.0625H51.375V39.0625H59.375ZM62.5 39.0625H70.5V31.0625H62.5V39.0625ZM68.75 45.3125H76.75V37.3125H68.75V45.3125ZM68.75 48.4375V56.4375H76.75V48.4375H68.75ZM62.5 54.6875V62.6875H70.5V54.6875H62.5ZM59.375 54.6875H51.375V62.6875H59.375V54.6875ZM53.125 48.4375H45.125V56.4375H53.125V48.4375ZM51.5625 59.5625H56.25V43.5625H51.5625V59.5625ZM48.25 51.5625V56.25H64.25V51.5625H48.25ZM48.25 56.25C48.25 61.5375 52.5369 65.8125 57.8125 65.8125V49.8125C61.3631 49.8125 64.25 52.6906 64.25 56.25H48.25ZM57.8125 65.8125H64.0625V49.8125H57.8125V65.8125ZM64.0625 65.8125C69.3381 65.8125 73.625 61.5375 73.625 56.25H57.625C57.625 52.6906 60.5119 49.8125 64.0625 49.8125V65.8125ZM73.625 56.25V51.5625H57.625V56.25H73.625ZM65.625 59.5625H70.3125V43.5625H65.625V59.5625ZM70.3125 59.5625C75.5881 59.5625 79.875 55.2875 79.875 50H63.875C63.875 46.4406 66.7619 43.5625 70.3125 43.5625V59.5625ZM79.875 50V43.75H63.875V50H79.875ZM79.875 43.75C79.875 38.4624 75.5881 34.1875 70.3125 34.1875V50.1875C66.7619 50.1875 63.875 47.3094 63.875 43.75H79.875ZM70.3125 34.1875H65.625V50.1875H70.3125V34.1875ZM73.625 42.1875V37.5H57.625V42.1875H73.625ZM73.625 37.5C73.625 32.2124 69.3381 27.9375 64.0625 27.9375V43.9375C60.5119 43.9375 57.625 41.0594 57.625 37.5H73.625ZM64.0625 27.9375H57.8125V43.9375H64.0625V27.9375ZM57.8125 27.9375C52.5369 27.9375 48.25 32.2124 48.25 37.5H64.25C64.25 41.0594 61.3631 43.9375 57.8125 43.9375V27.9375ZM48.25 37.5V42.1875H64.25V37.5H48.25ZM56.25 34.1875H51.5625V50.1875H56.25V34.1875ZM51.5625 34.1875C46.2869 34.1875 42 38.4624 42 43.75H58C58 47.3094 55.1131 50.1875 51.5625 50.1875V34.1875ZM42 43.75V50H58V43.75H42ZM42 50C42 55.2875 46.2869 59.5625 51.5625 59.5625V43.5625C55.1131 43.5625 58 46.4406 58 50H42ZM53.125 53.3125H57.8125V37.3125H53.125V53.3125ZM57.8125 53.3125C63.0881 53.3125 67.375 49.0375 67.375 43.75H51.375C51.375 40.1906 54.2619 37.3125 57.8125 37.3125V53.3125ZM67.375 43.75V39.0625H51.375V43.75H67.375ZM59.375 47.0625H62.5V31.0625H59.375V47.0625ZM54.5 39.0625V43.75H70.5V39.0625H54.5ZM54.5 43.75C54.5 49.0375 58.7869 53.3125 64.0625 53.3125V37.3125C67.6131 37.3125 70.5 40.1906 70.5 43.75H54.5ZM64.0625 53.3125H68.75V37.3125H64.0625V53.3125ZM60.75 45.3125V48.4375H76.75V45.3125H60.75ZM68.75 40.4375H64.0625V56.4375H68.75V40.4375ZM64.0625 40.4375C58.7869 40.4375 54.5 44.7125 54.5 50H70.5C70.5 53.5594 67.6131 56.4375 64.0625 56.4375V40.4375ZM54.5 50V54.6875H70.5V50H54.5ZM62.5 46.6875H59.375V62.6875H62.5V46.6875ZM67.375 54.6875V50H51.375V54.6875H67.375ZM67.375 50C67.375 44.7125 63.0881 40.4375 57.8125 40.4375V56.4375C54.2619 56.4375 51.375 53.5594 51.375 50H67.375ZM57.8125 40.4375H53.125V56.4375H57.8125V40.4375ZM61.125 48.4375V45.3125H45.125V48.4375H61.125Z" fill="#AF1315" mask="url(#path-5-inside-3_7_1981)"/>
</svg>
