<svg width="100" height="100" viewBox="0 0 100 100" fill="none" xmlns="http://www.w3.org/2000/svg">
<g clip-path="url(#clip0_7_2008)">
<path d="M81.9285 67.5801C84.9762 66.9882 87.3987 66.2001 87.832 64.5747C88.9684 60.3132 92.4498 60.6577 96.2258 58.5589C100.002 56.4601 98.0331 49.695 97.9461 44.9264C97.8591 40.1579 90.8384 43.5932 87.6473 40.8018C85.9215 39.2923 85.0417 36.9375 82.1244 37.8717C79.2072 38.806 75.2832 37.991 74.2543 36.3687C73.2254 34.7465 74.6711 31.7195 71.0076 30.1628C67.344 28.6061 70.8149 27.5059 68.5807 22.2635C66.3466 17.021 61.4463 21.8069 55.8864 21.1003C50.3266 20.3935 53.191 25.5641 50.02 27.1607C47.341 28.5096 42.5484 26.2161 37.3126 23.3362" stroke="#AF1315" stroke-width="3" stroke-miterlimit="10" stroke-linecap="round" stroke-linejoin="round"/>
<path d="M31.3354 20.0169C30.4029 19.5114 29.4759 19.0229 28.5634 18.5677C20.4783 14.5351 14.8259 17.6159 15.6329 20.5112C16.44 23.4063 17.0917 27.1926 11.7658 29.9052C6.43981 32.6179 2.08236 37.2994 2.3332 41.8808C2.64102 47.5037 14.4642 52.0493 19.92 50.8485C25.3758 49.6478 31.0416 47.2169 34.954 51.1344C40.3143 56.5018 43.2318 63.4495 41.2057 64.539C39.1795 65.6286 37.8728 63.7369 36.2343 64.1071C34.5958 64.4773 36.9748 67.3841 33.5587 69.6743C30.1429 71.9646 31.908 75.9761 34.9691 75.7225C38.0299 75.4691 43.196 74.8896 45.7518 69.2737C47.5717 65.2747 49.4761 64.3051 51.1723 66.4485C53.0185 68.781 54.606 71.19 58.0452 70.6631C60.8613 70.2318 61.817 72.6653 59.1499 73.3553C57.9445 73.6672 56.755 74.0195 55.7415 74.4664C54.5008 75.0136 54.5235 76.7839 55.7823 77.2888C58.0148 78.1846 59.797 79.549 59.8028 81.6496C59.8136 85.572 62.6281 85.7586 64.4276 83.7112C66.2272 81.6638 68.5139 79.8328 74.1372 80.6817C79.7605 81.5306 79.8244 74.2798 74.2724 75.2796C68.7205 76.2794 65.5158 74.3447 67.9737 71.645C69.3681 70.1135 72.143 69.3166 75.1897 68.7328" stroke="#AF1315" stroke-width="3" stroke-miterlimit="10" stroke-linecap="round" stroke-linejoin="round"/>
</g>
<defs>
<clipPath id="clip0_7_2008">
<rect width="100" height="100" fill="white"/>
</clipPath>
</defs>
</svg>
