<svg width="193" height="64" viewBox="0 0 193 64" fill="none" xmlns="http://www.w3.org/2000/svg">
<g clip-path="url(#clip0_11_2096)">
<path d="M165.02 52.9658C164.112 52.9658 163.403 52.7186 162.895 52.2243C162.386 51.73 162.132 51.0414 162.132 50.1586V18.2205C162.132 17.3024 162.368 16.6139 162.84 16.1548C163.349 15.6605 164.057 15.4133 164.966 15.4133C165.874 15.4133 166.564 15.6605 167.036 16.1548C167.545 16.6139 167.799 17.3024 167.799 18.2205V48.2519H184.692C185.492 48.2519 186.109 48.4637 186.545 48.8875C186.981 49.2759 187.199 49.8408 187.199 50.5824C187.199 51.3239 186.981 51.9065 186.545 52.3302C186.109 52.754 185.492 52.9658 184.692 52.9658H165.02Z" fill="#453F9B"/>
<path d="M133.094 52.9657C132.113 52.9657 131.35 52.7186 130.805 52.2242C130.296 51.6946 130.042 50.953 130.042 49.9997V18.5911C130.042 17.6377 130.296 16.9138 130.805 16.4195C131.35 15.8898 132.113 15.625 133.094 15.625H152.984C153.747 15.625 154.328 15.8192 154.728 16.2076C155.127 16.5607 155.327 17.0904 155.327 17.7966C155.327 18.5381 155.127 19.1031 154.728 19.4915C154.328 19.8799 153.747 20.0741 152.984 20.0741H135.491V31.7795H151.785C152.584 31.7795 153.166 31.9737 153.529 32.3621C153.929 32.7506 154.128 33.2979 154.128 34.0041C154.128 34.7456 153.929 35.3106 153.529 35.699C153.166 36.0521 152.584 36.2286 151.785 36.2286H135.491V48.5166H152.984C153.747 48.5166 154.328 48.7108 154.728 49.0993C155.127 49.4877 155.327 50.035 155.327 50.7412C155.327 51.4827 155.127 52.0477 154.728 52.4361C154.328 52.7892 153.747 52.9657 152.984 52.9657H133.094Z" fill="#FFCE6B"/>
<path d="M102.863 52.9658C101.955 52.9658 101.246 52.7186 100.738 52.2243C100.229 51.73 99.9746 51.0414 99.9746 50.1586V18.2205C99.9746 17.3024 100.211 16.6139 100.683 16.1548C101.192 15.6605 101.9 15.4133 102.808 15.4133C103.717 15.4133 104.407 15.6605 104.879 16.1548C105.388 16.6139 105.642 17.3024 105.642 18.2205V48.2519H122.535C123.334 48.2519 123.952 48.4637 124.388 48.8875C124.824 49.2759 125.042 49.8408 125.042 50.5824C125.042 51.3239 124.824 51.9065 124.388 52.3302C123.952 52.754 123.334 52.9658 122.535 52.9658H102.863Z" fill="#453F9B"/>
<path d="M72.7954 52.9658C71.8872 52.9658 71.1788 52.7186 70.6701 52.2243C70.1615 51.73 69.9072 51.0414 69.9072 50.1586V18.2205C69.9072 17.3024 70.1434 16.6139 70.6157 16.1548C71.1243 15.6605 71.8327 15.4133 72.7409 15.4133C73.6492 15.4133 74.3394 15.6605 74.8117 16.1548C75.3203 16.6139 75.5746 17.3024 75.5746 18.2205V48.2519H92.4678C93.267 48.2519 93.8846 48.4637 94.3206 48.8875C94.7565 49.2759 94.9745 49.8408 94.9745 50.5824C94.9745 51.3239 94.7565 51.9065 94.3206 52.3302C93.8846 52.754 93.267 52.9658 92.4678 52.9658H72.7954Z" fill="#453F9B"/>
<path d="M58.1589 53.3366C57.2507 53.3366 56.5422 53.0894 56.0336 52.5951C55.5613 52.1007 55.3252 51.4122 55.3252 50.5294V18.0616C55.3252 17.1435 55.5613 16.4549 56.0336 15.9959C56.5422 15.5016 57.2507 15.2544 58.1589 15.2544C59.0671 15.2544 59.7574 15.5016 60.2297 15.9959C60.7383 16.4549 60.9926 17.1435 60.9926 18.0616V50.5294C60.9926 51.4122 60.7564 52.1007 60.2842 52.5951C59.8119 53.0894 59.1035 53.3366 58.1589 53.3366Z" fill="#453F9B"/>
<path d="M16.3845 53.3366C15.4762 53.3366 14.7678 53.0894 14.2592 52.5951C13.7869 52.1007 13.5508 51.4122 13.5508 50.5294V18.0616C13.5508 17.1435 13.7869 16.4549 14.2592 15.9959C14.7678 15.5016 15.4762 15.2544 16.3845 15.2544C17.2927 15.2544 17.983 15.5016 18.4553 15.9959C18.9639 16.4549 19.2182 17.1435 19.2182 18.0616V31.7266H40.7434V18.0616C40.7434 17.1435 40.9796 16.4549 41.4518 15.9959C41.9604 15.5016 42.6689 15.2544 43.5771 15.2544C44.4853 15.2544 45.1756 15.5016 45.6479 15.9959C46.1202 16.4549 46.3563 17.1435 46.3563 18.0616V50.5294C46.3563 51.4122 46.1202 52.1007 45.6479 52.5951C45.1756 53.0894 44.4853 53.3366 43.5771 53.3366C42.6689 53.3366 41.9604 53.0894 41.4518 52.5951C40.9796 52.1007 40.7434 51.4122 40.7434 50.5294V36.3347H19.2182V50.5294C19.2182 51.4122 18.982 52.1007 18.5097 52.5951C18.0375 53.0894 17.329 53.3366 16.3845 53.3366Z" fill="#453F9B"/>
<path d="M29.5625 31.4338C16.7395 25.0361 6.5613 30.8982 8.16713 34.063C18.7822 29.5349 21.5451 38.6494 34.073 39C45.2902 38.6689 49.2694 33.3521 48.986 28.6488C48.7498 24.9777 43.5309 38.3963 29.5625 31.4338Z" fill="#FFCE6B"/>
</g>
<defs>
<clipPath id="clip0_11_2096">
<rect width="193" height="64" fill="white"/>
</clipPath>
</defs>
</svg>
